<svg width="294" height="294" viewBox="0 0 294 294" fill="none" xmlns="http://www.w3.org/2000/svg">
<path d="M276.8 114.8H244.8C243.2 110 241.2 105.2 238.8 100.4L261.2 78C267.6 71.6 267.6 61.2 261.2 54.8L238.8 32C232.4 25.6 222 25.6 215.6 32L193.2 54.4C188.4 52 184 50 178.8 48.4V16.4C178.8 7.6 171.6 0 162.4 0H130.4C121.6 0 114.4 7.2 114.4 16V48C109.6 49.6 104.8 51.6 100 54L77.6 31.6C71.2 25.2 60.8 25.2 54.4 31.6L32 54.8C25.6 61.2 25.6 71.6 32 78L54.8 100.4C52.4 105.2 50.4 109.6 48.8 114.8H16.8C8.00002 114.8 0.400024 122 0.400024 131.2V163.2C0.400024 172 7.60002 179.2 16.4 179.2H48.4C50 184 52 188.8 54.4 193.6L32 216C25.6 222.4 25.6 232.8 32 239.2L54.8 262C61.2 268.4 71.6 268.4 78 262L100.4 239.2C105.2 241.6 109.6 243.6 114.8 245.2V277.2C114.8 286 122 293.6 131.2 293.6H163.2C172 293.6 179.2 286.4 179.2 277.6V245.6C184 244 188.8 242 193.6 239.6L216 262C222.4 268.4 232.8 268.4 239.2 262L262 239.2C268.4 232.8 268.4 222.4 262 216L238.8 193.2C241.2 188.4 243.2 184 244.8 178.8H276.8C285.6 178.8 293.2 171.6 293.2 162.4V130.4C293.2 122 286 114.8 276.8 114.8ZM146.8 204C115.2 204 89.6 178.4 89.6 146.8C89.6 115.2 115.2 89.6 146.8 89.6C178.4 89.6 204.4 115.2 204.4 146.8C204.4 178.4 178.4 204 146.8 204Z" fill="black" fill-opacity="0.54"/>
</svg>
