<svg width="25" height="18" viewBox="0 0 25 18" fill="none" xmlns="http://www.w3.org/2000/svg">
    <path d="M13.8725 10.6392C12.9113 11.5983 11.3534 11.5983 10.3922 10.6392C9.43128 9.68003 9.43128 8.12481 10.3922 7.16565C11.3534 6.2065 12.9113 6.2065 13.8725 7.16565C14.8335 8.12481 14.8335 9.68003 13.8725 10.6392Z" fill="white"/>
    <path d="M17.2343 14.3611C16.9345 14.3611 16.6347 14.2467 16.4064 14.0176C15.9499 13.5605 15.9508 12.8198 16.4079 12.3636C17.3342 11.439 17.8443 10.2099 17.8443 8.90277C17.8443 7.59561 17.3342 6.36652 16.4079 5.44196C15.9508 4.98544 15.9499 4.24508 16.4064 3.78768C16.8626 3.33058 17.6033 3.32969 18.0604 3.7862C19.4296 5.15279 20.1836 6.96968 20.1836 8.90277C20.1836 10.8356 19.4296 12.6528 18.0604 14.0193C17.8321 14.2473 17.5332 14.3611 17.2343 14.3611Z" fill="white"/>
    <path d="M19.8799 17.8041C19.5801 17.8041 19.2803 17.6897 19.0521 17.4609C18.5956 17.0035 18.5964 16.2631 19.0536 15.8066C20.9015 13.9622 21.9195 11.5102 21.9195 8.9021C21.9195 6.294 20.9015 3.84201 19.0536 1.99762C18.5964 1.54111 18.5956 0.800748 19.0521 0.343347C19.5086 -0.113758 20.2489 -0.114645 20.7061 0.341869C22.9969 2.62828 24.2588 5.66836 24.2585 8.9021C24.2585 12.1358 22.9969 15.1762 20.7061 17.4626C20.4778 17.6903 20.1789 17.8041 19.8799 17.8041Z" fill="white"/>
    <path d="M7.02452 14.3612C6.7256 14.3612 6.42668 14.2474 6.19813 14.0194C4.82888 12.6529 4.07492 10.8357 4.07492 8.90288C4.07492 6.96979 4.82888 5.1529 6.19813 3.78632C6.65523 3.3298 7.39588 3.33039 7.8521 3.78779C8.30862 4.2449 8.30773 4.98555 7.85062 5.44207C6.92429 6.36663 6.41426 7.59573 6.41426 8.90288C6.41426 10.21 6.92429 11.4391 7.85062 12.3637C8.30773 12.8199 8.30862 13.5606 7.8521 14.0177C7.62385 14.2465 7.32404 14.3612 7.02452 14.3612Z" fill="white"/>
    <path d="M4.37887 17.8043C4.07965 17.8043 3.78073 17.6904 3.55247 17.4625C1.26162 15.1761 0 12.136 0 8.90225C0 5.66821 1.26162 2.62814 3.55247 0.341721C4.00958 -0.114498 4.75023 -0.113906 5.20645 0.343495C5.66296 0.800601 5.66208 1.54096 5.20497 1.99747C3.35704 3.84186 2.33904 6.29385 2.33904 8.90195C2.33904 11.5101 3.35704 13.9623 5.20497 15.8067C5.66208 16.2632 5.66296 17.0036 5.20645 17.461C4.97819 17.6899 4.67838 17.8043 4.37887 17.8043Z" fill="white"/>
</svg>