<svg width="33" height="23" viewBox="0 0 33 23" fill="none" xmlns="http://www.w3.org/2000/svg">
<path d="M30.9793 2.14348C30.1017 0.582378 29.1493 0.295234 27.21 0.186038C25.2728 0.054598 20.4014 0 16.1812 0C11.9529 0 7.07954 0.0545981 5.14434 0.184016C3.20915 0.295234 2.25469 0.580356 1.36899 2.14348C0.465094 3.70255 0 6.38796 0 11.1157C0 11.1198 0 11.1218 0 11.1218C0 11.1259 0 11.1279 0 11.1279V11.1319C0 15.8395 0.465094 18.5451 1.36899 20.088C2.25469 21.6491 3.20713 21.9322 5.14232 22.0637C7.07954 22.1769 11.9529 22.2436 16.1812 22.2436C20.4014 22.2436 25.2728 22.1769 27.212 22.0657C29.1513 21.9342 30.1037 21.6511 30.9813 20.09C31.8933 18.5471 32.3544 15.8415 32.3544 11.1339C32.3544 11.1339 32.3544 11.1279 32.3544 11.1238C32.3544 11.1238 32.3544 11.1198 32.3544 11.1178C32.3544 6.38796 31.8933 3.70255 30.9793 2.14348ZM12.1329 17.1883V5.05537L22.2436 11.1218L12.1329 17.1883Z" fill="#4B4B4B"/>
</svg>
