<?xml version="1.0" encoding="utf-8"?>
<!-- Generator: Adobe Illustrator 21.0.0, SVG Export Plug-In . SVG Version: 6.00 Build 0)  -->
<svg version="1.1" id="Isolation_Mode" xmlns="http://www.w3.org/2000/svg" xmlns:xlink="http://www.w3.org/1999/xlink" x="0px" height="24" width="24" viewBox="0 0 32 32"><path d="M5.688 4l22.313 22.313-1.688 1.688-5.563-5.563c-1 .625-2.25 1-3.438 1.188v4.375h-2.625v-4.375c-4.375-.625-8-4.375-8-8.938h2.25c0 4 3.375 6.75 7.063 6.75 1.063 0 2.125-.25 3.063-.688l-2.188-2.188c-.25.063-.563.125-.875.125-2.188 0-4-1.813-4-4v-1l-8-8zM20 14.875l-8-7.938v-.25c0-2.188 1.813-4 4-4s4 1.813 4 4v8.188zm5.313-.187a8.824 8.824 0 01-1.188 4.375L22.5 17.375c.375-.813.563-1.688.563-2.688h2.25z"></path></svg>