<svg fill="#fff" height="64" viewBox="0 0 64 64.000002" width="64" xmlns="http://www.w3.org/2000/svg"><path d="m64.000001 8.0000025c0-4.41736-3.58264-8-8-8h-48.0000025c-4.41736 0-8 3.58264-8 8v47.9999945c0 4.41736 3.58264 8 8 8h48.0000025c4.41736 0 8-3.58264 8-8z" style="clip-rule:evenodd;fill:black;fill-rule:evenodd;stroke-width:.104746;stroke-linejoin:round;stroke-miterlimit:1.414"/><g fill="#fff" stroke-width=".574086" transform="matrix(2.3849106 0 0 2.3849106 -9.54495 -43.547318)"><path d="m13.939838 33.65836a2.9622812 2.9622812 0 1 1 .03444-2.439863h2.296342a5.1667696 5.1667696 0 1 0 0 2.439863h-2.296342z"/><path d="m23.510509 27.257306h-.378897a5.0978793 5.0978793 0 0 0 -2.525976.889833v-5.752337h-2.095412v14.794184h2.106894v-.539641a5.1667696 5.1667696 0 1 0 2.893391-9.392039zm2.962281 5.534185v.09185a2.9393178 2.9393178 0 0 1 -.08037.361674 2.933577 2.933577 0 0 1 -.143521.373156v.04593a2.9795038 2.9795038 0 0 1 -2.072449 1.624662l-.281302.04593h-.06315a2.9163544 2.9163544 0 0 1 -.321488 0 2.9622812 2.9622812 0 0 1 -.40186-.02871h-.09185a2.933577 2.933577 0 0 1 -.752052-.229634h-.05741a2.9737629 2.9737629 0 0 1 -.66594-.447787 2.9909855 2.9909855 0 0 1 -.522417-.625753 2.9622812 2.9622812 0 0 1 -.189449-.367414 2.9450587 2.9450587 0 0 1 .03445-2.439864 2.9680221 2.9680221 0 0 1 2.376714-1.68207 2.933577 2.933577 0 0 1 .304265 0 2.9680221 2.9680221 0 0 1 2.927836 2.881909 2.9565404 2.9565404 0 0 1 0 .396119z"/></g></svg>