<svg data-v-7ba6fdb0="" viewBox="0 0 40 40" version="1.1" xmlns="http://www.w3.org/2000/svg" xmlns:xlink="http://www.w3.org/1999/xlink"><g data-v-7ba6fdb0="" id="Influencer" stroke="none" stroke-width="1" fill="none" fill-rule="evenodd"><g data-v-7ba6fdb0="" id="Artboard-Copy-4" transform="translate(-746.000000, -454.000000)"><g data-v-7ba6fdb0="" id="Group-2-Copy" transform="translate(746.000000, 454.000000)"><circle data-v-7ba6fdb0="" id="Oval-Copy" cx="20" cy="20" r="20" class="bg-fill"></circle><path data-v-7ba6fdb0="" d="M27.5599459,23.5848367 C27.5593338,23.5848367 27.5581095,23.585438 27.5568852,23.5860392 L27.560558,23.5806283 C27.560558,23.5818307 27.560558,23.5836343 27.5599459,23.5848367 M24.0604093,22.1178874 C23.7396541,22.4281111 23.3503406,22.5904375 22.8955294,22.5748061 C22.5313132,22.5633831 22.2093338,22.4329208 21.9338761,22.1984494 C21.5219138,21.8485459 21.3046084,21.3982406 21.2513532,20.8697781 C21.193201,20.2914153 21.3401118,19.7671613 21.7208555,19.3186596 C22.0159013,18.9717621 22.3941965,18.7619403 22.8655351,18.7372907 C23.3582983,18.71204 23.7665878,18.8893965 24.1038704,19.2356928 C24.4907354,19.6324905 24.6547857,20.1152611 24.6651919,20.6443248 C24.6553978,21.2202828 24.4735958,21.7180836 24.0604093,22.1178874 M17.9281095,21.8449387 C17.6881553,22.1900325 17.3661759,22.4341232 16.9480923,22.5321203 C16.4351289,22.652362 15.9729722,22.5333227 15.5720283,22.200253 C15.1655752,21.8635761 14.9550031,21.4234913 14.8888932,20.9106603 C14.8772628,20.8240862 14.8790992,20.7387146 14.8729779,20.6377115 C14.8772628,20.1603518 15.0211129,19.7142549 15.3424802,19.3336898 C15.6411987,18.9807803 16.0182697,18.7643451 16.4945054,18.7372907 C16.9621713,18.7108375 17.3576061,18.8713603 17.6893795,19.1863937 C18.0505351,19.5290826 18.2378463,19.9559408 18.2862045,20.4435211 C18.3370111,20.9521437 18.2225431,21.4228901 17.9281095,21.8449387 M30.4669425,23.5475618 C30.4400088,23.2409454 30.4087903,22.9355313 30.3708383,22.6307185 C30.3188074,22.2074675 30.2575946,21.7848178 30.1871999,21.3633705 C30.0782411,20.7128626 29.9472457,20.065962 29.7917651,19.4244723 C29.4893738,18.1805714 29.0969997,16.9643262 28.582812,15.7877607 C28.3134756,15.1715217 28.0178177,14.5685094 27.6554379,13.9985635 C27.6180981,13.9390438 27.5709642,13.8951556 27.5146484,13.8548746 C27.1345168,13.5873367 26.7378578,13.3456508 26.3258955,13.1268108 C25.4701404,12.6716958 24.5733727,12.323596 23.6190649,12.1245959 C23.3466678,12.0680822 23.0705981,12.0320097 22.7939161,12.0013481 C22.7327033,11.995336 22.6935271,12.0079614 22.669042,12.0692847 C22.6414962,12.1378225 22.6004836,12.2015506 22.5692651,12.2700884 C22.5392708,12.3338165 22.4645912,12.4047591 22.4909127,12.4588679 C22.5111129,12.5003513 22.616399,12.5033574 22.6843452,12.5213936 C23.4054322,12.7029587 24.1081553,12.9374301 24.7784356,13.2590767 C25.3654665,13.5416449 25.9102605,13.8891435 26.4146541,14.296763 C26.6282868,14.4687087 26.8443681,14.6382496 27.0426976,14.8276303 C27.0457582,14.8306364 27.0518795,14.835446 27.0512674,14.8366485 C27.0457582,14.8450654 27.0402491,14.8396545 27.0353521,14.8342436 C27.0108669,14.8252255 26.9851576,14.8168086 26.9606724,14.8047844 C26.4366907,14.5468659 25.9120969,14.2895485 25.372812,14.060488 C24.7637445,13.8031707 24.1418223,13.582527 23.5015363,13.4135874 C22.9279722,13.2620828 22.3464505,13.1514604 21.7569711,13.0787141 C21.3009356,13.0222005 20.8430637,12.9837231 20.3845797,12.9710978 C20.1036129,12.9638833 19.8226461,12.9542639 19.5410672,12.9626808 C19.1333898,12.9741038 18.7257125,12.9885328 18.3186473,13.0228017 C17.863836,13.0600767 17.4114733,13.1201975 16.9627834,13.2031643 C16.1908898,13.3480556 15.4398086,13.5626872 14.7064791,13.8422492 C13.9835557,14.118204 13.2869539,14.4518749 12.5958612,14.7957663 C12.5652548,14.8107965 12.5370969,14.8312376 12.5015935,14.8342436 C12.4966964,14.8396545 12.4917994,14.8450654 12.4856781,14.8366485 C12.4856781,14.835446 12.4911873,14.8306364 12.4948601,14.8276303 C12.5236301,14.7873493 12.5658669,14.7626998 12.6019825,14.7302345 C13.1718738,14.2312313 13.7821656,13.7881404 14.4506095,13.4244091 C14.959288,13.1484543 15.4906152,12.9242035 16.0427548,12.7456445 C16.3610614,12.6422366 16.683653,12.5562637 17.0093051,12.4811126 C17.0643967,12.4684873 17.0625603,12.4510522 17.0405237,12.4095688 C16.9793109,12.2953391 16.9187102,12.1793059 16.8636186,12.0620702 C16.8403578,12.0115686 16.8109756,11.995336 16.7571083,12.0019493 C16.5416392,12.0278013 16.325558,12.0560581 16.1125374,12.0957378 C15.4789848,12.2135748 14.8656324,12.3969434 14.2688074,12.6344209 C13.5244596,12.9308168 12.8229607,13.3047686 12.1630866,13.7532703 C12.0186244,13.8518686 11.8961987,13.9618898 11.8056038,14.1145968 C11.4934184,14.6382496 11.2222456,15.1805399 10.9767823,15.7366579 C10.6284813,16.5242414 10.3377205,17.3310635 10.0898086,18.1541183 C9.84863008,18.9543271 9.65091269,19.7653577 9.49114724,20.5860076 C9.40483717,21.0284972 9.32832116,21.4727905 9.26343557,21.9188873 C9.21875022,22.2273074 9.17773763,22.5363287 9.14284633,22.8459512 C9.11101566,23.1279181 9.08102138,23.4092838 9.05776052,23.6918519 C9.03939667,23.9112931 9.0204207,24.1307343 9.00328111,24.3513779 C8.9965477,24.4343447 8.99348706,24.510097 9.0638818,24.5828432 C9.31301795,24.841363 9.56766326,25.0932695 9.84495731,25.3241336 C10.5244196,25.889871 11.2803978,26.3293546 12.1024859,26.6642279 C12.7568509,26.9305633 13.4332525,27.1241526 14.1298543,27.2498052 C14.5142708,27.3189442 14.9011358,27.3712494 15.2928978,27.3844759 C15.3412559,27.3856784 15.3736987,27.3742554 15.403693,27.3339744 C15.6411987,27.0195422 15.8805408,26.7063125 16.1211072,26.3942852 C16.15355,26.3528018 16.1596713,26.3329619 16.0984585,26.3119196 C15.6871083,26.1712367 15.2880008,26.0022971 14.8986873,25.8087079 C14.3893967,25.5549978 13.9052033,25.2610067 13.4479436,24.924931 C13.1167823,24.6802391 12.8033726,24.4163084 12.5058784,24.1337403 C12.3350946,23.9720152 12.1667594,23.8078852 12.0204607,23.6233141 C12.0131152,23.6167008 12.0057697,23.6100875 11.9984241,23.6034742 C11.997812,23.6034742 11.997812,23.6022718 11.9965877,23.6022718 C11.9971999,23.5920513 11.9910786,23.588444 11.9818967,23.588444 C11.9812845,23.5872416 11.9806724,23.5872416 11.9800603,23.5860392 C11.978836,23.585438 11.9776118,23.5848367 11.9769996,23.5848367 C11.9763875,23.5836343 11.9763875,23.5818307 11.9763875,23.5806283 C11.9776118,23.5824319 11.978836,23.5842355 11.9800603,23.5860392 C11.9806724,23.5860392 11.9818967,23.5872416 11.9825088,23.5872416 L11.9818967,23.588444 L11.9825088,23.5872416 C11.9874058,23.5920513 11.9923029,23.5974621 11.9971999,23.6022718 C11.997812,23.6022718 11.9984241,23.6022718 11.9984241,23.6034742 C12.0020969,23.6022718 12.0039333,23.6058791 12.0076061,23.6064803 C12.0149516,23.6070815 12.0229093,23.6070815 12.0284184,23.614296 C12.0369882,23.6185044 12.0467823,23.6215105 12.0541278,23.6263201 C12.7623601,24.1427585 13.5201747,24.5744263 14.328796,24.9201213 C15.0486587,25.227339 15.7930065,25.457602 16.559391,25.6217319 C17.0625603,25.7287471 17.5712388,25.8051006 18.0848143,25.858007 C18.4765763,25.898288 18.8689505,25.9253423 19.2619367,25.9355629 C19.9567022,25.9529979 20.6508555,25.9373665 21.3431724,25.8694299 C21.6688246,25.8369647 21.9938646,25.7984873 22.3164562,25.7461821 C22.7957525,25.668025 23.2701518,25.5646171 23.7378177,25.4341548 C24.4742079,25.2297438 25.1842765,24.9585987 25.864963,24.6171121 C26.3314047,24.3820395 26.7800946,24.1169065 27.2085843,23.8205106 C27.3083612,23.7513716 27.4087502,23.6828338 27.5091392,23.614296 C27.5158727,23.6040754 27.5256667,23.5986645 27.5385214,23.6034742 C27.5311759,23.6100875 27.5238303,23.6167008 27.5164848,23.6233141 C27.5085271,23.6353383 27.5017937,23.6479637 27.4919997,23.6587854 C27.312034,23.8583867 27.1216621,24.0483687 26.9245569,24.2329398 C26.6417537,24.4962692 26.3436473,24.7415624 26.0302376,24.968218 C25.2375317,25.5423724 24.3732068,25.9866656 23.4452205,26.3101159 C23.3882926,26.3299558 23.37605,26.3431824 23.4158383,26.3948864 C23.6570168,26.7063125 23.8957468,27.0207447 24.1338646,27.3339744 C24.1614104,27.3706481 24.1895683,27.3862796 24.2373143,27.3844759 C24.4944081,27.376059 24.7484413,27.347201 25.0030866,27.3129321 C25.5093166,27.2449955 26.0069768,27.1355755 26.4966793,26.9912854 C27.5538246,26.6798593 28.5313933,26.2139225 29.4079608,25.5501881 C29.8046198,25.2501849 30.1694482,24.9165141 30.4999974,24.5473719 C30.5306038,24.5137042 30.54101,24.4800366 30.5379493,24.4367495 C30.5153006,24.1403536 30.493264,23.8433565 30.4669425,23.5475618" id="Fill-1" fill="#738BD7"></path></g></g></g></svg>