<svg data-v-7ba6fdb0="" viewBox="0 0 40 40" version="1.1" xmlns="http://www.w3.org/2000/svg" xmlns:xlink="http://www.w3.org/1999/xlink" ><defs data-v-7ba6fdb0=""><linearGradient data-v-7ba6fdb0="" x1="100%" y1="6.24500451e-15%" x2="0%" y2="100%" id="linearGradient-1"><stop data-v-7ba6fdb0="" stop-color="#7B3DAD" offset="0%"></stop><stop data-v-7ba6fdb0="" stop-color="#E21936" offset="51.7860368%"></stop><stop data-v-7ba6fdb0="" stop-color="#F6CD2E" offset="100%"></stop></linearGradient></defs><g data-v-7ba6fdb0="" id="Influencer" stroke="none" stroke-width="1" fill="none" fill-rule="evenodd"><g data-v-7ba6fdb0="" id="Artboard-Copy-4" transform="translate(-634.000000, -454.000000)"><g data-v-7ba6fdb0="" id="Group-18" transform="translate(634.000000, 454.000000)"><g data-v-7ba6fdb0="" id="Group-16" class="bg-fill"><circle data-v-7ba6fdb0="" id="Oval" cx="20" cy="20" r="20"></circle></g><path data-v-7ba6fdb0="" d="M26.1347601,10 L13.8652399,10 C11.7344779,10 10,11.733302 10,13.8652399 L10,26.1347601 C10,28.266698 11.7344779,30 13.8652399,30 L26.1347601,30 C28.2655221,30 30,28.266698 30,26.1347601 L30,13.8652399 C30,11.733302 28.2655221,10 26.1347601,10 L26.1347601,10 Z M27.24365,12.3059737 L27.6857949,12.3036218 L27.6857949,15.6937912 L24.3062088,15.7043744 L24.2944497,12.3142051 L27.24365,12.3059737 L27.24365,12.3059737 Z M17.1460489,17.9468485 C17.7857479,17.060207 18.8252587,16.4793039 20,16.4793039 C21.1747413,16.4793039 22.2142521,17.060207 22.8539511,17.9468485 C23.2714017,18.5253998 23.5206961,19.233302 23.5206961,20 C23.5206961,21.9402634 21.9414393,23.5195202 20,23.5195202 C18.0597366,23.5195202 16.4804798,21.9402634 16.4804798,20 C16.4804798,19.233302 16.7297742,18.5253998 17.1460489,17.9468485 L17.1460489,17.9468485 Z M28.0515052,26.1347601 C28.0515052,27.1919097 27.1919097,28.0515052 26.1347601,28.0515052 L13.8652399,28.0515052 C12.8080903,28.0515052 11.9484948,27.1919097 11.9484948,26.1347601 L11.9484948,17.9468485 L14.9353246,17.9468485 C14.6766228,18.5818438 14.5319849,19.2744591 14.5319849,20 C14.5319849,23.0150517 16.9849483,25.469191 20,25.469191 C23.0162277,25.469191 25.469191,23.0150517 25.469191,20 C25.469191,19.2744591 25.3222013,18.5818438 25.0658514,17.9468485 L28.0515052,17.9468485 L28.0515052,26.1347601 L28.0515052,26.1347601 Z" id="Shape" fill="url(#linearGradient-1)"></path></g></g></g></svg>