<svg data-v-7ba6fdb0="" viewBox="0 0 40 40" version="1.1" xmlns="http://www.w3.org/2000/svg" xmlns:xlink="http://www.w3.org/1999/xlink" ><g data-v-7ba6fdb0="" id="Influencer" stroke="none" stroke-width="1" fill="none" fill-rule="evenodd"><g data-v-7ba6fdb0="" id="Artboard-Copy-4" transform="translate(-802.000000, -454.000000)"><g data-v-7ba6fdb0="" id="Group-14-Copy" transform="translate(802.000000, 454.000000)"><circle data-v-7ba6fdb0="" id="Oval" cx="20" cy="20" r="20" class="bg-fill"></circle><path data-v-7ba6fdb0="" d="M11.4656632,16.9197967 L15.0639699,16.9197967 L15.0639699,29.4603564 L11.4656632,29.4603564 L11.4656632,16.9197967 Z M13.173095,15.3511924 L13.1470439,15.3511924 C11.8444895,15.3511924 11,14.3925352 11,13.1785514 C11,11.9397441 11.8694551,11 13.1980606,11 C14.5255807,11 15.3418482,11.9373799 15.3678993,13.1750052 C15.3678993,14.388989 14.5255807,15.3511924 13.173095,15.3511924 L13.173095,15.3511924 Z M29.4615385,29.4615385 L25.3812866,29.4615385 L25.3812866,22.9708029 C25.3812866,21.2721712 24.743035,20.1137445 23.3395325,20.1137445 C22.2660106,20.1137445 21.6690064,20.8950915 21.3911282,21.6504329 C21.2869238,21.9199444 21.3032057,22.2970241 21.3032057,22.6752859 L21.3032057,29.4615385 L17.2609451,29.4615385 C17.2609451,29.4615385 17.3130473,17.9647448 17.2609451,16.9197967 L21.3032057,16.9197967 L21.3032057,18.88794 C21.5420074,18.0273944 22.8337072,16.7992257 24.8949996,16.7992257 C27.4523482,16.7992257 29.4615385,18.6042436 29.4615385,22.4873371 L29.4615385,29.4615385 L29.4615385,29.4615385 Z" id="Shape" fill="#1171AB"></path></g></g></g></svg>