<svg data-v-7ba6fdb0="" viewBox="0 0 40 40" version="1.1" xmlns="http://www.w3.org/2000/svg" xmlns:xlink="http://www.w3.org/1999/xlink" ><g data-v-7ba6fdb0="" id="Influencer" stroke="none" stroke-width="1" fill="none" fill-rule="evenodd"><g data-v-7ba6fdb0="" id="Artboard-Copy-4" transform="translate(-522.000000, -454.000000)"><g data-v-7ba6fdb0="" id="Group-14" transform="translate(522.000000, 454.000000)"><circle data-v-7ba6fdb0="" id="Oval" cx="20" cy="20" r="20" class="bg-fill"></circle><path data-v-7ba6fdb0="" d="M30,15.2096503 L29.2489598,15.2096503 C28.9700647,15.2096503 28.5747804,15.6115045 28.5747804,15.8688225 L28.5747804,25.1815461 C28.5747804,25.4388642 28.9700647,25.7892547 29.2489598,25.7892547 L30,25.7892547 L30,28 L23.1912275,28 L23.1912275,25.7892547 L24.6164471,25.7892547 L24.6164471,15.999124 L24.5472723,15.999124 L21.2191979,28 L18.6432617,28 L15.3580097,15.999124 L15.2745608,15.999124 L15.2745608,25.7892547 L16.6997804,25.7892547 L16.6997804,28 L11,28 L11,25.7892547 L11.730178,25.7892547 C12.0310333,25.7892547 12.4252196,25.4388642 12.4252196,25.1815461 L12.4252196,15.8688225 C12.4252196,15.6115045 12.0310333,15.2096503 11.730178,15.2096503 L11,15.2096503 L11,13 L18.127196,13 L20.4681577,21.6842105 L20.5318423,21.6842105 L22.8936662,13 L30,13 L30,15.2096503" id="Shape" fill="#20B14A"></path></g></g></g></svg>