<svg data-v-7ba6fdb0="" viewBox="0 0 40 40" version="1.1" xmlns="http://www.w3.org/2000/svg" xmlns:xlink="http://www.w3.org/1999/xlink" ><g data-v-7ba6fdb0="" id="Influencer" stroke="none" stroke-width="1" fill="none" fill-rule="evenodd"><g data-v-7ba6fdb0="" id="Artboard-Copy-4" transform="translate(-690.000000, -454.000000)"><g data-v-7ba6fdb0="" id="Group-19" transform="translate(690.000000, 454.000000)"><g data-v-7ba6fdb0="" id="Group-4-Copy" class="bg-fill"><circle data-v-7ba6fdb0="" id="Oval-Copy-2" cx="20" cy="20" r="20"></circle></g><path data-v-7ba6fdb0="" d="M16.507327,24.4891153 C16.2829616,24.5380949 16.1366631,24.7789112 16.1815362,25.0278908 C16.1981331,25.1204078 16.2405473,25.2061221 16.3032467,25.2714282 C17.2320579,26.2993193 18.6151321,26.4619044 19.7209768,26.465986 C19.736959,26.4666663 19.7535559,26.465986 19.7695381,26.465986 C19.7769145,26.4666663 19.7849056,26.4666663 19.7935114,26.465986 C20.9171824,26.465986 22.3082477,26.3095234 23.2468941,25.2714282 C23.4097895,25.0945575 23.412863,24.8040813 23.2530411,24.6238092 C23.1639097,24.5224486 23.0378962,24.4727888 22.9112681,24.4891153 C22.8184485,24.5061221 22.7342346,24.5571425 22.6709205,24.6340133 C22.0168801,25.358503 20.8643182,25.5442173 19.8408433,25.5503398 L19.7935114,25.5503398 C19.7849056,25.5496595 19.7769145,25.5496595 19.7695381,25.5503398 L19.7092976,25.5503398 C18.6895108,25.543537 17.5418665,25.3557819 16.8908996,24.6340133 C16.8073004,24.5265303 16.6831311,24.4680269 16.5552736,24.4755099 C16.5392914,24.4789112 16.5226945,24.4829928 16.507327,24.4891153 Z M21.5435614,20.5863943 C21.5435614,21.4925167 22.2129693,22.2319725 23.0311345,22.2319725 C23.8492998,22.2319725 24.518093,21.4925167 24.518093,20.5863943 C24.518093,19.6802719 23.8492998,18.9408161 23.0311345,18.9408161 C22.2129693,18.9408161 21.5435614,19.6795916 21.5435614,20.5863943 Z M15.0437271,20.5863943 C15.0437271,21.4925167 15.7119056,22.2319725 16.5313003,22.2319725 C17.3494655,22.2319725 18.0182588,21.4925167 18.0182588,20.5863943 C18.0182588,19.6795916 17.3494655,18.9408161 16.5313003,18.9408161 C15.7119056,18.9408161 15.0437271,19.6802719 15.0437271,20.5863943 Z M29.7104611,18.7816324 C29.7104611,19.3591834 29.4651959,19.8721086 29.0871556,20.2020406 C28.7361621,19.1217685 28.0538455,18.1448978 27.1447047,17.335374 C27.4090255,17.1170066 27.7317429,16.9897957 28.0919569,16.9897957 C28.9918772,16.9897957 29.7104611,17.7850338 29.7104611,18.7816324 Z M12.3451956,17.3088433 C11.439743,18.1068025 10.7555822,19.0714283 10.3910653,20.1353739 C10.0474482,19.8068025 9.82738575,19.3285712 9.82738575,18.7816324 C9.82738575,17.7850338 10.5471991,16.9897957 11.44589,16.9897957 C11.7852042,16.9897957 12.0882511,17.1136053 12.3451956,17.3088433 Z M28.2597699,11.2564625 C28.2597699,11.9891156 27.733587,12.5707482 27.0721701,12.5707482 C26.4089092,12.5707482 25.8851851,11.9891156 25.8851851,11.2564625 C25.8851851,10.5231292 26.4089092,9.92925168 27.0721701,9.92925168 C27.733587,9.92925168 28.2597699,10.5231292 28.2597699,11.2564625 Z M25.213933,10.3673469 L21.4482829,9.385034 C21.4058686,9.36870747 21.3609956,9.35918367 21.3161225,9.35782312 C21.1458507,9.37619047 21.0026256,9.50816325 20.9565232,9.69047617 L19.481244,14.7863944 C16.9990867,14.8333332 14.749286,15.5591835 13.0650089,16.7510202 C12.632875,16.3265304 12.0685807,16.0734692 11.44589,16.0734692 C10.099083,16.0734692 9,17.2897957 9,18.7816324 C9,19.7496596 9.46963054,20.6061222 10.1636265,21.0904759 C10.1242857,21.3496596 10.0910919,21.6190473 10.0910919,21.8863943 C10.0910919,23.9149656 11.2448832,25.7074826 12.993089,26.9700676 C14.7419096,28.2319724 17.115265,29.0006798 19.7332708,28.9999995 C22.3512767,28.9999995 24.7240174,28.2319724 26.472838,26.9700676 C28.2216585,25.7074826 29.3508618,23.9149656 29.3508618,21.8863943 C29.3508618,21.633333 29.3373384,21.3755099 29.3029152,21.130612 C30.0405548,20.6598637 30.5384615,19.785714 30.5384615,18.7816324 C30.5384615,17.2897957 29.4399932,16.0734692 28.0919569,16.0734692 C27.455128,16.0734692 26.884072,16.3482992 26.4488647,16.790476 C24.8426544,15.6380951 22.7157936,14.9108842 20.357191,14.7993196 L21.6277752,10.3802721 L25.0577993,11.2693877 C25.064561,12.4911564 25.9663254,13.4857142 27.0721701,13.4857142 C28.181703,13.4857142 29.0871556,12.4843537 29.0871556,11.2557823 C29.0871556,10.0278911 28.1810883,9 27.0721701,9 C26.243555,9.00068027 25.5225123,9.56734693 25.213933,10.3673469 Z" id="Shape" fill="#FC471E"></path></g></g></g></svg>