<svg data-v-7ba6fdb0="" viewBox="0 0 40 40" version="1.1" xmlns="http://www.w3.org/2000/svg" xmlns:xlink="http://www.w3.org/1999/xlink" ><g data-v-7ba6fdb0="" id="Influencer" stroke="none" stroke-width="1" fill="none" fill-rule="evenodd"><g data-v-7ba6fdb0="" id="Artboard-Copy-4" transform="translate(-858.000000, -454.000000)"><g data-v-7ba6fdb0="" id="Group-32" transform="translate(858.000000, 454.000000)"><circle data-v-7ba6fdb0="" id="Oval" cx="20" cy="20" r="20" class="bg-fill"></circle><path data-v-7ba6fdb0="" d="M9.82805,18.0303423 C10.7718962,17.6179577 11.7155885,17.2049962 12.6632038,16.8013423 C13.5408192,16.4275731 14.4210115,16.0594192 15.3046269,15.7000346 C16.3748962,15.2647269 17.4502808,14.8419192 18.5226654,14.4118038 C18.6733192,14.3513808 18.8368577,14.3218038 18.9731654,14.2264577 C19.3383962,14.1488038 19.6711654,13.9798808 20.0166269,13.8483808 C22.6121269,12.8603808 25.2152808,11.8931885 27.8327423,10.9648808 C28.0188577,10.8988808 28.2118192,10.8470731 28.4055885,10.8088038 C28.9002423,10.71115 29.2508192,11.0664962 29.1875115,11.5669962 C29.0928192,12.3156885 28.9358192,13.0537269 28.8229346,13.79915 C28.7319731,14.2397269 28.6378962,14.67965 28.5506269,15.1209577 C28.3492038,16.1395346 28.1551269,17.1595731 27.9506269,18.1775346 C27.6810885,19.5192269 27.4043192,20.8594962 27.1314346,22.2005346 C27.12255,22.2441115 27.1223962,22.2894962 27.1181654,22.3339962 C27.0972423,22.4246115 27.0762808,22.5152654 27.0553192,22.6058808 C27.04955,22.6429577 27.0437808,22.6800346 27.03805,22.71715 C27.0009731,22.80465 26.9805885,22.8959962 26.9759731,22.9908808 C26.9710885,23.0157269 26.9661654,23.0404962 26.9612808,23.0653038 C26.7606269,23.9632269 26.5600115,24.8612269 26.3593962,25.7591885 C26.2534346,26.2333808 26.1521654,26.70865 26.0402423,27.1814192 C25.8514731,27.9789962 24.9082423,28.2997654 24.2562808,27.7979577 C22.8352038,26.70415 21.4106269,25.6148423 19.9877808,24.5233423 C19.9367808,24.4841885 19.8889346,24.4408808 19.8205885,24.4357269 C19.8177038,24.3924962 19.78655,24.3700731 19.7558192,24.3465731 C19.3253962,24.0172269 18.8963577,23.6860346 18.4645115,23.3584962 C18.0077038,23.0119962 17.5483192,22.6688808 17.09005,22.3242654 C17.0765885,22.21615 17.1590885,22.1628423 17.2233962,22.1048038 C17.9776654,21.4242269 18.7349346,20.7469577 19.4889731,20.0661115 C20.0772423,19.5350346 20.6595885,18.9973808 21.24905,18.46765 C22.07105,17.7289192 22.8979731,16.9956115 23.7214346,16.2585346 C24.3498192,15.6960346 24.9756654,15.1306885 25.6038192,14.5678808 C25.7554731,14.4319962 25.8077038,14.2656885 25.7235115,14.1510346 C25.5990115,13.9815346 25.4567808,14.0560346 25.3162038,14.1258038 C25.2932808,14.1371885 25.27055,14.1492654 25.2490115,14.1630346 C24.6562808,14.5414577 24.0643577,14.9211885 23.4709731,15.2985731 C21.6693577,16.4446115 19.86655,17.5886885 18.0654731,18.7355731 C16.9546269,19.4429962 15.8459731,20.1538423 14.7368962,20.8640346 C14.6394731,20.9264192 14.5454346,20.9934192 14.42405,20.9985346 C13.0754346,20.5524577 11.7294731,20.09815 10.3764731,19.6658808 C10.0218577,19.5525731 9.67381923,19.4559192 9.40855,19.1728423 C9.33647308,19.0959192 9.30589615,18.9984577 9.23939615,18.9221115 C9.19655,18.5579962 9.30124231,18.2605731 9.82805,18.0303423 Z" id="Fill-1" fill="#33A1D7"></path><path data-v-7ba6fdb0="" d="M14.4240615,20.9985462 C14.5454462,20.9933923 14.6394846,20.9264308 14.7368692,20.8640462 C15.8459462,20.1538538 16.9546,19.4430077 18.0654846,18.7355846 C19.8665231,17.5887 21.6693692,16.4446231 23.4709846,15.2985846 C24.0643308,14.9211615 24.6562923,14.5414308 25.2489846,14.1630077 C25.2705615,14.1492769 25.2932923,14.1371615 25.3162154,14.1258154 C25.4567923,14.0560462 25.5989846,13.9815462 25.7235231,14.1510462 C25.8077154,14.2656615 25.7554846,14.4320077 25.6037923,14.5678923 C24.9756769,15.1307 24.3498308,15.6960462 23.7214077,16.2585462 C22.8979462,16.9956231 22.0710615,17.7288923 21.2490615,18.4676231 C20.6596,18.9973923 20.0772154,19.5350077 19.4889846,20.0661231 C18.7349462,20.7469692 17.9776769,21.4242 17.2234077,22.1048154 C17.1590615,22.1628154 17.0765615,22.2161231 17.0900231,22.3243923 C16.9839846,22.7830462 16.9553308,23.2525462 16.8960615,23.7175846 C16.8479077,24.0954308 16.8130231,24.4748923 16.7671385,24.8530462 C16.7098692,25.3253538 16.6530615,25.7978538 16.5849846,26.2687 C16.5462923,26.5361231 16.5557154,26.8105846 16.4697538,27.0710846 C16.2695231,26.8950846 16.1719846,26.6583538 16.0964077,26.4137 C15.5596,24.6757 15.0264077,22.9366231 14.4917154,21.1980077 C14.4711,21.1308923 14.4466769,21.0650077 14.4240615,20.9985462" id="Fill-4" stroke="#33A1D7" stroke-linecap="round" stroke-linejoin="round"></path><path data-v-7ba6fdb0="" d="M16.4697731,27.0710731 C16.5556962,26.8106115 16.5463115,26.5361115 16.5849654,26.2687269 C16.6530423,25.7978423 16.7098885,25.3253423 16.7671577,24.8530346 C16.8130038,24.4748808 16.8479269,24.0954192 16.8960808,23.7176115 C16.95535,23.2525346 16.9839654,22.7830731 17.0900423,22.3243808 C17.5483115,22.6688808 18.0076962,23.0119962 18.4645038,23.3584962 C18.89635,23.6860346 19.3253885,24.0172269 19.75585,24.3465731 C19.7865423,24.3700731 19.8176962,24.3924962 19.8206192,24.4357269 C19.7350423,24.5983038 19.5851962,24.7026885 19.4567731,24.8240731 C18.9648885,25.2891115 18.4651577,25.7458038 17.9700038,26.2073808 C17.6989269,26.4600346 17.4363885,26.7221885 17.1601962,26.9690731 C16.9255808,27.1788038 16.66685,27.2859962 16.4697731,27.0710731" id="Fill-6" stroke="#33A1D7" stroke-linecap="round" stroke-linejoin="round"></path></g></g></g></svg>