<svg data-v-7ba6fdb0="" viewBox="0 0 40 40" version="1.1" xmlns="http://www.w3.org/2000/svg" xmlns:xlink="http://www.w3.org/1999/xlink" ><g data-v-7ba6fdb0="" id="Influencer" stroke="none" stroke-width="1" fill="none" fill-rule="evenodd"><g data-v-7ba6fdb0="" id="Artboard-Copy-4" transform="translate(-466.000000, -454.000000)"><g data-v-7ba6fdb0="" id="Group-2" transform="translate(466.000000, 454.000000)"><circle data-v-7ba6fdb0="" id="Oval-Copy" cx="20" cy="20" r="20" class="bg-fill"></circle><path data-v-7ba6fdb0="" d="M27.7617538,14.5295392 C28.5669425,14.0303337 29.1847743,13.2387693 29.4747315,12.2958255 C28.7208429,12.7592084 27.8877737,13.0943233 26.9989435,13.2757475 C26.2896637,12.489961 25.2759289,12 24.1540177,12 C22.0016435,12 20.2574397,13.8084645 20.2574397,16.0387115 C20.2574397,16.3553373 20.2897811,16.663874 20.3566943,16.958544 C17.1180959,16.789831 14.2464049,15.1835909 12.3226507,12.7384082 C11.9869695,13.3369926 11.7951517,14.0303337 11.7951517,14.7698974 C11.7951517,16.1704463 12.4832424,17.4069045 13.5293185,18.1326015 C12.8902976,18.1118012 12.2891941,17.9280659 11.7628104,17.6276181 L11.7628104,17.6773075 C11.7628104,19.6348404 13.105535,21.2676585 14.8910019,21.6374404 C14.5631273,21.732197 14.2196396,21.7795753 13.8627693,21.7795753 C13.6118448,21.7795753 13.3664964,21.7553084 13.1300698,21.7079301 C13.6252274,23.311859 15.0649762,24.4812942 16.7712625,24.5124946 C15.4363444,25.5964177 13.7557082,26.2412249 11.9300933,26.2412249 C11.6156013,26.2412249 11.304455,26.2238914 11,26.1857576 C12.7252451,27.3309259 14.7739039,28 16.9753478,28 C24.1462112,28 28.0650936,21.8454427 28.0650936,16.5078723 C28.0650936,16.3322259 28.0628632,16.1577351 28.0550566,15.9855554 C28.8167518,15.4158602 29.4791923,14.70403 30,13.8939766 C29.3007572,14.2152246 28.549099,14.4324715 27.7617538,14.5295392 Z" id="Shape-Copy-7" fill="#2ED3FD"></path></g></g></g></svg>