<svg width="20" height="20" viewBox="0 0 20 20" fill="none" xmlns="http://www.w3.org/2000/svg">
<path fill-rule="evenodd" clip-rule="evenodd" d="M2.41 3.48L5.58 8.98C5.88 7.67 6.74 6.55 7.89 5.94C8.87 5.43 9.77 5.46 11.16 5.46C13.08 5.46 16.64 5.46 18.9 5.46C17.09 1.89 13.55 0 9.97 0C7.22 0 4.44 1.13 2.41 3.48ZM6.67 10C6.67 11.83 8.16 13.33 10 13.33C11.83 13.33 13.32 11.83 13.32 10C13.32 8.17 11.83 6.67 10 6.67C8.16 6.67 6.67 8.17 6.67 10ZM11.29 14.35C9.42 14.91 7.24 14.29 6.04 12.23C5.13 10.65 2.72 6.45 1.62 4.54C0.51 6.24 0 8.12 0 9.96C0 14.5 3.11 18.84 8.06 19.81L11.29 14.35ZM13.92 12.27C13.13 13.64 10.6 17.91 9.37 19.98C15.36 20.35 20 15.51 20 10C20 8.91 19.82 7.79 19.42 6.67H13.08C14.64 8.12 14.98 10.46 13.92 12.27Z" fill="black"/>
</svg>
