<svg xmlns="http://www.w3.org/2000/svg" viewBox="0 0 40 40">
	<style>
		tspan { white-space:pre }
		.shp0 { fill: #000000 } 
	</style>
	<path id="Layer" fill-rule="evenodd" class="shp0" d="M12.41 13.48L15.58 18.98C15.88 17.67 16.74 16.55 17.89 15.94C18.87 15.43 19.77 15.46 21.16 15.46C23.08 15.46 26.64 15.46 28.9 15.46C27.09 11.89 23.55 10 19.97 10C17.22 10 14.44 11.13 12.41 13.48ZM16.67 20C16.67 21.83 18.16 23.33 20 23.33C21.83 23.33 23.32 21.83 23.32 20C23.32 18.17 21.83 16.67 20 16.67C18.16 16.67 16.67 18.17 16.67 20ZM21.29 24.35C19.42 24.91 17.24 24.29 16.04 22.23C15.13 20.65 12.72 16.45 11.62 14.54C10.51 16.24 10 18.12 10 19.96C10 24.5 13.11 28.84 18.06 29.81L21.29 24.35ZM23.92 22.27C23.13 23.64 20.6 27.91 19.37 29.98C25.36 30.35 30 25.51 30 20C30 18.91 29.82 17.79 29.42 16.67L23.08 16.67C24.64 18.12 24.98 20.46 23.92 22.27Z" />
</svg>