<svg xmlns="http://www.w3.org/2000/svg" viewBox="0 0 2498 2503" width="2498" height="2503">
	<style>
		tspan { white-space:pre }
		.shp0 { display: none;fill: #ffffff } 
		.shp1 { fill: none } 
		.shp2 { fill: #ff0000 } 
	</style>
	<path id="Layer" class="shp0" d="M0 1864.11L0 1864.22C1.5 1919.72 2 1975.54 11.32 2030.69C21.24 2089.04 35.42 2145.94 62.47 2198.9C99.04 2270.58 149.11 2331.13 212.68 2380.56C258.2 2416.06 307.93 2444.25 362.98 2462.03C443.24 2487.92 526.05 2497.84 610.07 2498.33C662.49 2498.66 714.88 2499.97 767.32 2499.75C1148.14 2498.15 1528.97 2502.5 1909.81 2497.4C1960.34 2496.72 2010.05 2490.55 2059.65 2481.48C2154.71 2464.08 2238.72 2423.48 2310.6 2359.39C2394.37 2284.68 2450.89 2193.23 2476.41 2082.87C2493.1 2010.73 2497.28 1937.55 2497.99 1864.1L2497.99 1849.45C2497.99 1843.77 2495.83 601.54 2495.63 585.12C2495.08 540.02 2491.75 495.25 2483.3 450.87C2473.01 396.79 2458.48 344.09 2432.59 295.17C2405.24 243.47 2370.99 197 2328.59 156.38C2263.7 94.15 2188.81 50.15 2101.59 26.87C2022.85 5.87 1942.52 1.19 1861.59 1.27C1861.53 1.18 1861.47 1.08 1861.41 0.99C1861.36 0.89 1861.32 0.79 1861.28 0.68C1861.24 0.58 1861.21 0.47 1861.19 0.36C1861.16 0.25 1861.15 0.14 1861.14 0.03L636.4 0.03C636.4 0.45 636.4 0.86 636.33 1.27C590.4 2.11 544.41 1.76 498.72 7.43C448.67 13.65 399.09 23.02 351.72 40.52C277.1 68.12 212.26 111.11 156.88 168.52C94.13 233.52 49.88 308.74 26.44 396.31C5.49 474.44 0.93 554.12 0.82 634.37" />
	<path id="Layer" class="shp1" d="M0 0.79L2498 0.79L2498 2498.79L0 2498.79L0 0.79Z" />
	<path id="Layer" fill-rule="evenodd" class="shp2" d="M1293.24 1938.65L883.7 1931.16C751.1 1928.55 618.17 1933.76 488.17 1906.72C290.41 1866.32 276.4 1668.23 261.74 1502.07C241.54 1268.47 249.36 1030.63 287.48 798.98C309 669 393.69 591.44 524.66 583C966.78 552.37 1411.84 556 1852.98 570.29C1899.57 571.6 1946.48 578.76 1992.42 586.91C2219.19 626.66 2224.72 851.14 2239.42 1040.11C2254.08 1231.03 2247.89 1422.93 2219.87 1612.55C2197.39 1769.55 2154.38 1901.21 1972.87 1913.92C1745.45 1930.54 1523.25 1943.92 1295.19 1939.66C1295.2 1938.65 1293.89 1938.65 1293.24 1938.65ZM1052.47 1541.17C1223.85 1442.77 1391.96 1346.01 1562.36 1248.27C1390.66 1149.87 1222.87 1053.11 1052.47 955.37L1052.47 1541.17Z" />
</svg>