<svg width="56" height="56" viewBox="0 0 56 56" fill="none" xmlns="http://www.w3.org/2000/svg">
<circle cx="28" cy="28" r="28" fill="#C4C4C4"/>
<g clip-path="url(#clip0)">
<path d="M41.7347 14.2654C38.7141 11.2449 33.8171 11.2449 30.7966 14.2653L24.3323 20.7296C21.2079 23.8541 21.4972 28.8325 24.3323 31.6677C24.8071 32.1424 25.3324 32.5296 25.887 32.8475L27.0669 31.6677C27.8407 30.8937 27.5683 29.989 27.5544 29.3362C27.3845 29.2158 27.2194 29.0856 27.0669 28.9331C25.612 27.4784 25.5465 24.9844 27.0669 23.4641C27.2926 23.2383 33.394 17.137 33.531 17C35.0391 15.4918 37.4919 15.4918 39 17C40.5082 18.5081 40.5082 20.9609 39 22.469L34.7272 26.7418C34.8508 27.4254 35.5923 29.0449 35.2109 31.7163C35.2295 31.698 35.2518 31.6862 35.2704 31.6678L41.7347 25.2035C44.7551 22.183 44.7551 17.2859 41.7347 14.2654Z" fill="white"/>
<path d="M31.1686 24.8312C30.6939 24.3564 30.1685 23.9693 29.614 23.6514L28.4342 24.8312C27.6602 25.605 27.9326 26.5097 27.9465 27.1626C28.1165 27.283 28.2817 27.4131 28.4342 27.5656C29.8891 29.0205 29.9545 31.5143 28.4342 33.0346C28.2079 33.2609 21.6012 39.8676 21.469 39.9998C19.9608 41.508 17.5081 41.508 15.9999 39.9998C14.4918 38.4917 14.4918 36.0389 15.9999 34.5308L20.7738 29.7569C20.6502 29.0733 19.9086 27.4538 20.2901 24.7824C20.2715 24.8007 20.2491 24.8126 20.2305 24.8311L13.2654 31.7964C10.245 34.8169 10.245 39.7139 13.2654 42.7345C16.2859 45.7549 21.1829 45.7549 24.2034 42.7345L31.1686 35.7693C34.235 32.7028 34.0674 27.73 31.1686 24.8312Z" fill="white"/>
</g>
<defs>
<clipPath id="clip0">
<rect width="33" height="33" fill="white" transform="translate(11 12)"/>
</clipPath>
</defs>
</svg>
