<svg width="145" height="35" viewBox="0 0 145 35" fill="none" xmlns="http://www.w3.org/2000/svg">
<g clip-path="url(#clip0)">
<path d="M10.8628 9.72395C10.8628 10.276 10.7488 10.7559 10.5208 11.1639C10.2928 11.5719 9.98087 11.9139 9.58487 12.1899C9.18887 12.4539 8.72687 12.658 8.19887 12.802C7.67087 12.934 7.11287 13 6.52487 13H0.296875V0.219949H7.40687C7.85087 0.219949 8.25287 0.31595 8.61287 0.50795C8.97287 0.69995 9.27887 0.95195 9.53087 1.26395C9.78287 1.56395 9.97487 1.91195 10.1068 2.30795C10.2508 2.69195 10.3228 3.08795 10.3228 3.49595C10.3228 4.10795 10.1668 4.68395 9.85487 5.22395C9.55487 5.76395 9.09887 6.17195 8.48687 6.44795C9.21887 6.66395 9.79487 7.04795 10.2148 7.59995C10.6468 8.15195 10.8628 8.85995 10.8628 9.72395ZM7.85687 9.12995C7.85687 8.73395 7.74287 8.39795 7.51487 8.12195C7.28687 7.84595 6.99887 7.70795 6.65087 7.70795H3.24887V10.498H6.52487C6.90887 10.498 7.22687 10.372 7.47887 10.12C7.73087 9.86795 7.85687 9.53795 7.85687 9.12995ZM3.24887 2.73995V5.38595H6.14687C6.47087 5.38595 6.75887 5.27795 7.01087 5.06195C7.26287 4.84595 7.38887 4.50995 7.38887 4.05395C7.38887 3.63395 7.27487 3.30995 7.04687 3.08195C6.83087 2.85395 6.56687 2.73995 6.25487 2.73995H3.24887ZM17.1015 13V0.219949H20.0535V10.408H26.2455V13H17.1015ZM48.303 6.50195C48.303 5.73395 48.447 4.97195 48.735 4.21595C49.023 3.44795 49.443 2.76395 49.995 2.16395C50.547 1.56395 51.219 1.07795 52.011 0.705949C52.803 0.333949 53.703 0.147949 54.711 0.147949C55.911 0.147949 56.949 0.405949 57.825 0.92195C58.713 1.43795 59.373 2.10995 59.805 2.93795L57.537 4.52195C57.393 4.18595 57.207 3.90995 56.979 3.69395C56.763 3.46595 56.523 3.28595 56.259 3.15395C55.995 3.00995 55.725 2.91395 55.449 2.86595C55.173 2.80595 54.903 2.77595 54.639 2.77595C54.075 2.77595 53.583 2.88995 53.163 3.11795C52.743 3.34595 52.395 3.63995 52.119 3.99995C51.843 4.35995 51.639 4.76795 51.507 5.22395C51.375 5.67995 51.309 6.14195 51.309 6.60995C51.309 7.11395 51.387 7.59995 51.543 8.06795C51.699 8.53595 51.921 8.94995 52.209 9.30995C52.509 9.66995 52.863 9.95795 53.271 10.174C53.691 10.378 54.159 10.4799 54.675 10.4799C54.939 10.4799 55.209 10.45 55.485 10.39C55.773 10.318 56.043 10.216 56.295 10.084C56.559 9.93995 56.799 9.75995 57.015 9.54395C57.231 9.31595 57.405 9.03995 57.537 8.71595L59.949 10.1379C59.757 10.606 59.469 11.026 59.085 11.398C58.713 11.7699 58.281 12.082 57.789 12.334C57.297 12.5859 56.775 12.778 56.223 12.91C55.671 13.042 55.131 13.108 54.603 13.108C53.679 13.108 52.827 12.922 52.047 12.55C51.279 12.166 50.613 11.662 50.049 11.038C49.497 10.414 49.065 9.70595 48.753 8.91395C48.453 8.12195 48.303 7.31795 48.303 6.50195ZM65.9336 13V0.219949H68.8856V5.72795L73.5656 0.219949H76.8776L72.0896 5.92595L77.2016 13H73.8356L70.2176 7.85195L68.8856 9.23795V13H65.9336Z" fill="black"/>
<path d="M33.5 1.5H42.5V11.5H33.5V1.5Z" fill="white" stroke="black" stroke-width="3"/>
<path d="M33.5 20.5H42.5V30.5H33.5V20.5Z" fill="white" stroke="black" stroke-width="3"/>
<path d="M14.79 25.5019C14.79 24.7339 14.934 23.9719 15.222 23.2159C15.51 22.4479 15.93 21.7639 16.482 21.1639C17.034 20.5639 17.706 20.0779 18.498 19.7059C19.29 19.3339 20.19 19.1479 21.198 19.1479C22.398 19.1479 23.436 19.4059 24.312 19.9219C25.2 20.4379 25.86 21.1099 26.292 21.9379L24.024 23.5219C23.88 23.1859 23.694 22.9099 23.466 22.6939C23.25 22.4659 23.01 22.2859 22.746 22.1539C22.482 22.0099 22.212 21.9139 21.936 21.8659C21.66 21.8059 21.39 21.7759 21.126 21.7759C20.562 21.7759 20.07 21.8899 19.65 22.1179C19.23 22.3459 18.882 22.6399 18.606 22.9999C18.33 23.3599 18.126 23.7679 17.994 24.2239C17.862 24.6799 17.796 25.1419 17.796 25.6099C17.796 26.1139 17.874 26.5999 18.03 27.0679C18.186 27.5359 18.408 27.9499 18.696 28.3099C18.996 28.6699 19.35 28.9579 19.758 29.1739C20.178 29.3779 20.646 29.4799 21.162 29.4799C21.426 29.4799 21.696 29.4499 21.972 29.3899C22.26 29.3179 22.53 29.2159 22.782 29.0839C23.046 28.9399 23.286 28.7599 23.502 28.5439C23.718 28.3159 23.892 28.0399 24.024 27.7159L26.436 29.1379C26.244 29.6059 25.956 30.0259 25.572 30.3979C25.2 30.7699 24.768 31.0819 24.276 31.3339C23.784 31.5859 23.262 31.7779 22.71 31.9099C22.158 32.0419 21.618 32.108 21.09 32.108C20.166 32.108 19.314 31.9219 18.534 31.5499C17.766 31.1659 17.1 30.6619 16.536 30.0379C15.984 29.4139 15.552 28.7059 15.24 27.9139C14.94 27.1219 14.79 26.3179 14.79 25.5019Z" fill="black"/>
<path d="M52.4725 24.692V32H49.5205V19.22H51.8245L57.7825 26.726V19.22H60.7345V32H58.3585L52.4725 24.692ZM67.6787 32V19.22H76.3547V21.812H70.6307V24.566H75.3467V26.96H70.6307V32H67.6787Z" fill="black"/>
<path d="M91.3555 28.7715C91.3555 28.3496 91.4082 27.9453 91.5137 27.5586C91.6192 27.168 91.7754 26.8242 91.9825 26.5273C92.1934 26.2266 92.4551 25.9883 92.7676 25.8125C93.084 25.6328 93.4551 25.543 93.8809 25.543C94.2832 25.543 94.6426 25.6289 94.959 25.8008C95.2793 25.9727 95.5469 26.2129 95.7618 26.5215V23H96.459V32H95.8028L95.7735 31.1738C95.5508 31.4785 95.2774 31.7129 94.9532 31.877C94.6289 32.0371 94.2676 32.1172 93.8692 32.1172C93.4512 32.1172 93.084 32.0273 92.7676 31.8477C92.4551 31.6641 92.1934 31.4238 91.9825 31.127C91.7754 30.8262 91.6192 30.4824 91.5137 30.0957C91.4082 29.7051 91.3555 29.3047 91.3555 28.8945V28.7715ZM92.0645 28.8945C92.0645 29.2109 92.0977 29.5254 92.1641 29.8379C92.2344 30.1504 92.3457 30.4316 92.4981 30.6816C92.6504 30.9277 92.8497 31.127 93.0957 31.2793C93.3418 31.4316 93.6426 31.5078 93.9981 31.5078C94.1973 31.5078 94.3848 31.4824 94.5606 31.4316C94.7403 31.3809 94.9043 31.3086 95.0528 31.2148C95.2051 31.1172 95.3399 31.002 95.4571 30.8691C95.5782 30.7324 95.6797 30.5801 95.7618 30.4121V27.3418C95.6836 27.166 95.586 27.0059 95.4688 26.8613C95.3555 26.7168 95.2247 26.5918 95.0762 26.4863C94.9278 26.3809 94.7637 26.2988 94.584 26.2402C94.4043 26.1816 94.2129 26.1523 94.0098 26.1523C93.6504 26.1523 93.3477 26.2305 93.1016 26.3867C92.8555 26.5391 92.6543 26.7402 92.4981 26.9902C92.3457 27.2363 92.2344 27.5156 92.1641 27.8281C92.0977 28.1406 92.0645 28.4551 92.0645 28.7715V28.8945ZM99.7175 25.6602H102.659V31.3789H104.815V32H99.7175V31.3789H101.956V26.2871H99.7175V25.6602ZM101.751 23.9258C101.751 23.7812 101.792 23.6562 101.874 23.5508C101.956 23.4453 102.092 23.3926 102.284 23.3926C102.471 23.3926 102.606 23.4453 102.688 23.5508C102.774 23.6562 102.817 23.7812 102.817 23.9258C102.817 24.0625 102.774 24.1836 102.688 24.2891C102.606 24.3906 102.471 24.4414 102.284 24.4414C102.092 24.4414 101.956 24.3906 101.874 24.2891C101.792 24.1836 101.751 24.0625 101.751 23.9258ZM107.341 28.7715C107.341 28.3496 107.392 27.9453 107.493 27.5586C107.595 27.168 107.749 26.8242 107.956 26.5273C108.167 26.2266 108.429 25.9883 108.741 25.8125C109.058 25.6328 109.431 25.543 109.861 25.543C110.267 25.543 110.63 25.6309 110.95 25.8066C111.275 25.9785 111.544 26.2227 111.759 26.5391L111.788 25.6602H112.445V31.8887C112.441 32.2754 112.38 32.6309 112.263 32.9551C112.146 33.2793 111.976 33.5566 111.753 33.7871C111.534 34.0215 111.269 34.2031 110.956 34.332C110.644 34.4609 110.292 34.5254 109.902 34.5254C109.714 34.5254 109.519 34.5039 109.316 34.4609C109.113 34.418 108.913 34.3516 108.718 34.2617C108.523 34.1719 108.335 34.0586 108.156 33.9219C107.98 33.7891 107.825 33.6289 107.693 33.4414L108.085 33.0195C108.589 33.6289 109.179 33.9336 109.855 33.9336C110.156 33.9336 110.423 33.8848 110.657 33.7871C110.892 33.6895 111.087 33.5508 111.243 33.3711C111.404 33.1953 111.525 32.9824 111.607 32.7324C111.693 32.4863 111.738 32.2148 111.741 31.918V31.1973C111.519 31.4941 111.245 31.7227 110.921 31.8828C110.601 32.0391 110.243 32.1172 109.849 32.1172C109.427 32.1172 109.058 32.0273 108.741 31.8477C108.429 31.6641 108.169 31.4238 107.962 31.127C107.755 30.8262 107.599 30.4824 107.493 30.0957C107.392 29.7051 107.341 29.3047 107.341 28.8945V28.7715ZM108.044 28.8945C108.044 29.2109 108.077 29.5254 108.144 29.8379C108.214 30.1504 108.325 30.4316 108.478 30.6816C108.63 30.9277 108.829 31.127 109.075 31.2793C109.322 31.4316 109.622 31.5078 109.978 31.5078C110.177 31.5078 110.366 31.4824 110.546 31.4316C110.726 31.377 110.89 31.3008 111.038 31.2031C111.191 31.1055 111.325 30.9883 111.443 30.8516C111.564 30.7109 111.663 30.5547 111.741 30.3828V27.3652C111.663 27.1895 111.568 27.0273 111.454 26.8789C111.341 26.7305 111.21 26.6035 111.062 26.498C110.913 26.3887 110.749 26.3047 110.57 26.2461C110.39 26.1836 110.197 26.1523 109.99 26.1523C109.63 26.1523 109.327 26.2305 109.081 26.3867C108.835 26.5391 108.634 26.7402 108.478 26.9902C108.325 27.2363 108.214 27.5156 108.144 27.8281C108.077 28.1406 108.044 28.4551 108.044 28.7715V28.8945ZM115.691 25.6602H118.633V31.3789H120.789V32H115.691V31.3789H117.93V26.2871H115.691V25.6602ZM117.725 23.9258C117.725 23.7812 117.766 23.6562 117.848 23.5508C117.93 23.4453 118.066 23.3926 118.258 23.3926C118.445 23.3926 118.58 23.4453 118.662 23.5508C118.748 23.6562 118.791 23.7812 118.791 23.9258C118.791 24.0625 118.748 24.1836 118.662 24.2891C118.58 24.3906 118.445 24.4414 118.258 24.4414C118.066 24.4414 117.93 24.3906 117.848 24.2891C117.766 24.1836 117.725 24.0625 117.725 23.9258ZM125.852 24.0371V25.6602H128.202V26.2344H125.852V30.2246C125.856 30.4707 125.893 30.6758 125.964 30.8398C126.038 31 126.135 31.1309 126.257 31.2324C126.382 31.3301 126.526 31.4004 126.69 31.4434C126.858 31.4863 127.04 31.5078 127.235 31.5078C127.43 31.5078 127.63 31.4941 127.833 31.4668C128.04 31.4395 128.216 31.4121 128.36 31.3848L128.466 31.918C128.298 31.9844 128.092 32.0332 127.85 32.0645C127.608 32.0996 127.362 32.1172 127.112 32.1172C126.831 32.1172 126.571 32.082 126.333 32.0117C126.094 31.9453 125.887 31.8379 125.712 31.6895C125.536 31.5371 125.397 31.3418 125.296 31.1035C125.194 30.8613 125.141 30.5664 125.137 30.2188V26.2344H123.374V25.6602H125.137V24.0371H125.852ZM135.861 32C135.818 31.8711 135.785 31.7285 135.761 31.5723C135.738 31.4121 135.722 31.25 135.714 31.0859C135.593 31.2344 135.453 31.3711 135.292 31.4961C135.132 31.6211 134.956 31.7305 134.765 31.8242C134.578 31.9141 134.374 31.9844 134.156 32.0352C133.937 32.0898 133.708 32.1172 133.47 32.1172C133.173 32.1172 132.896 32.0742 132.638 31.9883C132.384 31.9023 132.162 31.7812 131.97 31.625C131.783 31.4688 131.634 31.2812 131.525 31.0625C131.419 30.8398 131.367 30.5918 131.367 30.3184C131.367 29.9551 131.447 29.6465 131.607 29.3926C131.767 29.1387 131.984 28.9336 132.257 28.7773C132.531 28.6172 132.847 28.5 133.206 28.4258C133.566 28.3516 133.943 28.3145 134.337 28.3145H135.708V27.5938C135.705 27.3555 135.658 27.1465 135.568 26.9668C135.478 26.7832 135.355 26.6309 135.199 26.5098C135.046 26.3848 134.863 26.291 134.648 26.2285C134.437 26.166 134.206 26.1348 133.956 26.1348C133.73 26.1348 133.513 26.1641 133.306 26.2227C133.103 26.2812 132.921 26.3652 132.761 26.4746C132.605 26.584 132.478 26.7188 132.38 26.8789C132.283 27.0352 132.23 27.2129 132.222 27.4121L131.519 27.4062C131.531 27.1367 131.601 26.8887 131.73 26.6621C131.863 26.4355 132.04 26.2402 132.263 26.0762C132.486 25.9082 132.744 25.7773 133.037 25.6836C133.333 25.5898 133.65 25.543 133.986 25.543C134.322 25.543 134.636 25.5859 134.929 25.6719C135.226 25.7578 135.482 25.8867 135.697 26.0586C135.915 26.2305 136.087 26.4453 136.212 26.7031C136.341 26.9609 136.408 27.2617 136.412 27.6055V30.6758C136.412 30.8867 136.429 31.0996 136.464 31.3145C136.503 31.5293 136.55 31.7344 136.605 31.9297L136.611 32H135.861ZM133.546 31.4961C133.792 31.5 134.027 31.4707 134.249 31.4082C134.476 31.3457 134.683 31.2598 134.871 31.1504C135.058 31.0371 135.224 30.9043 135.369 30.752C135.513 30.5957 135.626 30.4258 135.708 30.2422V28.8535H134.431C134.123 28.8535 133.826 28.877 133.54 28.9238C133.255 28.9707 133.003 29.0488 132.785 29.1582C132.566 29.2637 132.39 29.4062 132.257 29.5859C132.128 29.7656 132.064 29.9902 132.064 30.2598C132.064 30.4512 132.103 30.623 132.181 30.7754C132.259 30.9277 132.365 31.0586 132.498 31.168C132.63 31.2734 132.787 31.3555 132.966 31.4141C133.146 31.4688 133.339 31.4961 133.546 31.4961ZM139.653 23H142.606V31.3789H144.75V32H139.653V31.3789H141.903V23.627H139.653V23Z" fill="black"/>
<path d="M84.75 32V0" stroke="black" stroke-width="0.5"/>
</g>
<defs>
<clipPath id="clip0">
<rect width="145" height="35" fill="white"/>
</clipPath>
</defs>
</svg>
