<svg width="145" height="35" viewBox="0 0 145 35" fill="none" xmlns="http://www.w3.org/2000/svg">
<path d="M10.8632 9.724C10.8632 10.276 10.7492 10.756 10.5212 11.164C10.2932 11.572 9.98124 11.914 9.58524 12.19C9.18924 12.454 8.72724 12.658 8.19924 12.802C7.67124 12.934 7.11324 13 6.52524 13H0.297242V0.219999H7.40724C7.85124 0.219999 8.25324 0.316 8.61324 0.508C8.97324 0.7 9.27924 0.952 9.53124 1.264C9.78324 1.564 9.97524 1.912 10.1072 2.308C10.2512 2.692 10.3232 3.088 10.3232 3.496C10.3232 4.108 10.1672 4.684 9.85524 5.224C9.55524 5.764 9.09924 6.172 8.48724 6.448C9.21924 6.664 9.79524 7.048 10.2152 7.6C10.6472 8.152 10.8632 8.86 10.8632 9.724ZM7.85724 9.13C7.85724 8.734 7.74324 8.398 7.51524 8.122C7.28724 7.846 6.99924 7.708 6.65124 7.708H3.24924V10.498H6.52524C6.90924 10.498 7.22724 10.372 7.47924 10.12C7.73124 9.868 7.85724 9.538 7.85724 9.13ZM3.24924 2.74V5.386H6.14724C6.47124 5.386 6.75924 5.278 7.01124 5.062C7.26324 4.846 7.38924 4.51 7.38924 4.054C7.38924 3.634 7.27524 3.31 7.04724 3.082C6.83124 2.854 6.56724 2.74 6.25524 2.74H3.24924ZM17.1019 13V0.219999H20.0539V10.408H26.2459V13H17.1019ZM48.3034 6.502C48.3034 5.734 48.4474 4.972 48.7354 4.216C49.0234 3.448 49.4434 2.764 49.9954 2.164C50.5474 1.564 51.2194 1.078 52.0114 0.705999C52.8034 0.333999 53.7034 0.147999 54.7114 0.147999C55.9114 0.147999 56.9494 0.405999 57.8254 0.922C58.7134 1.438 59.3734 2.11 59.8054 2.938L57.5374 4.522C57.3934 4.186 57.2074 3.91 56.9794 3.694C56.7634 3.466 56.5234 3.286 56.2594 3.154C55.9954 3.01 55.7254 2.914 55.4494 2.866C55.1734 2.806 54.9034 2.776 54.6394 2.776C54.0754 2.776 53.5834 2.89 53.1634 3.118C52.7434 3.346 52.3954 3.64 52.1194 4C51.8434 4.36 51.6394 4.768 51.5074 5.224C51.3754 5.68 51.3094 6.142 51.3094 6.61C51.3094 7.114 51.3874 7.6 51.5434 8.068C51.6994 8.536 51.9214 8.95 52.2094 9.31C52.5094 9.67 52.8634 9.958 53.2714 10.174C53.6914 10.378 54.1594 10.48 54.6754 10.48C54.9394 10.48 55.2094 10.45 55.4854 10.39C55.7734 10.318 56.0434 10.216 56.2954 10.084C56.5594 9.94 56.7994 9.76 57.0154 9.544C57.2314 9.316 57.4054 9.04 57.5374 8.716L59.9494 10.138C59.7574 10.606 59.4694 11.026 59.0854 11.398C58.7134 11.77 58.2814 12.082 57.7894 12.334C57.2974 12.586 56.7754 12.778 56.2234 12.91C55.6714 13.042 55.1314 13.108 54.6034 13.108C53.6794 13.108 52.8274 12.922 52.0474 12.55C51.2794 12.166 50.6134 11.662 50.0494 11.038C49.4974 10.414 49.0654 9.706 48.7534 8.914C48.4534 8.122 48.3034 7.318 48.3034 6.502ZM65.934 13V0.219999H68.886V5.728L73.566 0.219999H76.878L72.09 5.926L77.202 13H73.836L70.218 7.852L68.886 9.238V13H65.934Z" fill="white"/>
<path d="M33.5 1.5L42.5 1.5V11.5H33.5V1.5Z" fill="black" stroke="white" stroke-width="3"/>
<path d="M33.5 20.5H42.5V30.5H33.5V20.5Z" fill="#121212" stroke="white" stroke-width="3"/>
<path d="M14.7897 25.502C14.7897 24.734 14.9337 23.972 15.2217 23.216C15.5097 22.448 15.9297 21.764 16.4817 21.164C17.0337 20.564 17.7057 20.078 18.4977 19.706C19.2897 19.334 20.1897 19.148 21.1977 19.148C22.3977 19.148 23.4357 19.406 24.3117 19.922C25.1997 20.438 25.8597 21.11 26.2917 21.938L24.0237 23.522C23.8797 23.186 23.6937 22.91 23.4657 22.694C23.2497 22.466 23.0097 22.286 22.7457 22.154C22.4817 22.01 22.2117 21.914 21.9357 21.866C21.6597 21.806 21.3897 21.776 21.1257 21.776C20.5617 21.776 20.0697 21.89 19.6497 22.118C19.2297 22.346 18.8817 22.64 18.6057 23C18.3297 23.36 18.1257 23.768 17.9937 24.224C17.8617 24.68 17.7957 25.142 17.7957 25.61C17.7957 26.114 17.8737 26.6 18.0297 27.068C18.1857 27.536 18.4077 27.95 18.6957 28.31C18.9957 28.67 19.3497 28.958 19.7577 29.174C20.1777 29.378 20.6457 29.48 21.1617 29.48C21.4257 29.48 21.6957 29.45 21.9717 29.39C22.2597 29.318 22.5297 29.216 22.7817 29.084C23.0457 28.94 23.2857 28.76 23.5017 28.544C23.7177 28.316 23.8917 28.04 24.0237 27.716L26.4357 29.138C26.2437 29.606 25.9557 30.026 25.5717 30.398C25.1997 30.77 24.7677 31.082 24.2757 31.334C23.7837 31.586 23.2617 31.778 22.7097 31.91C22.1577 32.042 21.6177 32.108 21.0897 32.108C20.1657 32.108 19.3137 31.922 18.5337 31.55C17.7657 31.166 17.0997 30.662 16.5357 30.038C15.9837 29.414 15.5517 28.706 15.2397 27.914C14.9397 27.122 14.7897 26.318 14.7897 25.502Z" fill="white"/>
<path d="M52.4729 24.692V32H49.5209V19.22H51.8249L57.7829 26.726V19.22H60.7349V32H58.3589L52.4729 24.692ZM67.6791 32V19.22H76.3551V21.812H70.6311V24.566H75.3471V26.96H70.6311V32H67.6791Z" fill="white"/>
<path d="M91.3553 28.7715C91.3553 28.3496 91.408 27.9453 91.5135 27.5586C91.619 27.168 91.7752 26.8242 91.9823 26.5273C92.1932 26.2266 92.4549 25.9883 92.7674 25.8125C93.0838 25.6328 93.4549 25.543 93.8807 25.543C94.283 25.543 94.6424 25.6289 94.9588 25.8008C95.2791 25.9727 95.5467 26.2129 95.7616 26.5215V23H96.4588V32H95.8026L95.7733 31.1738C95.5506 31.4785 95.2772 31.7129 94.953 31.877C94.6287 32.0371 94.2674 32.1172 93.869 32.1172C93.451 32.1172 93.0838 32.0273 92.7674 31.8477C92.4549 31.6641 92.1932 31.4238 91.9823 31.127C91.7752 30.8262 91.619 30.4824 91.5135 30.0957C91.408 29.7051 91.3553 29.3047 91.3553 28.8945V28.7715ZM92.0643 28.8945C92.0643 29.2109 92.0975 29.5254 92.1639 29.8379C92.2342 30.1504 92.3455 30.4316 92.4979 30.6816C92.6502 30.9277 92.8495 31.127 93.0955 31.2793C93.3416 31.4316 93.6424 31.5078 93.9979 31.5078C94.1971 31.5078 94.3846 31.4824 94.5604 31.4316C94.7401 31.3809 94.9041 31.3086 95.0526 31.2148C95.2049 31.1172 95.3397 31.002 95.4569 30.8691C95.578 30.7324 95.6795 30.5801 95.7616 30.4121V27.3418C95.6834 27.166 95.5858 27.0059 95.4686 26.8613C95.3553 26.7168 95.2245 26.5918 95.076 26.4863C94.9276 26.3809 94.7635 26.2988 94.5838 26.2402C94.4041 26.1816 94.2127 26.1523 94.0096 26.1523C93.6502 26.1523 93.3475 26.2305 93.1014 26.3867C92.8553 26.5391 92.6541 26.7402 92.4979 26.9902C92.3455 27.2363 92.2342 27.5156 92.1639 27.8281C92.0975 28.1406 92.0643 28.4551 92.0643 28.7715V28.8945ZM99.7173 25.6602H102.659V31.3789H104.815V32H99.7173V31.3789H101.956V26.2871H99.7173V25.6602ZM101.751 23.9258C101.751 23.7812 101.792 23.6562 101.874 23.5508C101.956 23.4453 102.092 23.3926 102.284 23.3926C102.471 23.3926 102.606 23.4453 102.688 23.5508C102.774 23.6562 102.817 23.7812 102.817 23.9258C102.817 24.0625 102.774 24.1836 102.688 24.2891C102.606 24.3906 102.471 24.4414 102.284 24.4414C102.092 24.4414 101.956 24.3906 101.874 24.2891C101.792 24.1836 101.751 24.0625 101.751 23.9258ZM107.341 28.7715C107.341 28.3496 107.392 27.9453 107.493 27.5586C107.595 27.168 107.749 26.8242 107.956 26.5273C108.167 26.2266 108.429 25.9883 108.741 25.8125C109.058 25.6328 109.431 25.543 109.861 25.543C110.267 25.543 110.63 25.6309 110.95 25.8066C111.275 25.9785 111.544 26.2227 111.759 26.5391L111.788 25.6602H112.445V31.8887C112.441 32.2754 112.38 32.6309 112.263 32.9551C112.146 33.2793 111.976 33.5566 111.753 33.7871C111.534 34.0215 111.269 34.2031 110.956 34.332C110.644 34.4609 110.292 34.5254 109.902 34.5254C109.714 34.5254 109.519 34.5039 109.316 34.4609C109.113 34.418 108.913 34.3516 108.718 34.2617C108.523 34.1719 108.335 34.0586 108.156 33.9219C107.98 33.7891 107.825 33.6289 107.693 33.4414L108.085 33.0195C108.589 33.6289 109.179 33.9336 109.855 33.9336C110.156 33.9336 110.423 33.8848 110.657 33.7871C110.892 33.6895 111.087 33.5508 111.243 33.3711C111.404 33.1953 111.525 32.9824 111.607 32.7324C111.693 32.4863 111.738 32.2148 111.741 31.918V31.1973C111.519 31.4941 111.245 31.7227 110.921 31.8828C110.601 32.0391 110.243 32.1172 109.849 32.1172C109.427 32.1172 109.058 32.0273 108.741 31.8477C108.429 31.6641 108.169 31.4238 107.962 31.127C107.755 30.8262 107.599 30.4824 107.493 30.0957C107.392 29.7051 107.341 29.3047 107.341 28.8945V28.7715ZM108.044 28.8945C108.044 29.2109 108.077 29.5254 108.144 29.8379C108.214 30.1504 108.325 30.4316 108.478 30.6816C108.63 30.9277 108.829 31.127 109.075 31.2793C109.322 31.4316 109.622 31.5078 109.978 31.5078C110.177 31.5078 110.366 31.4824 110.546 31.4316C110.726 31.377 110.89 31.3008 111.038 31.2031C111.191 31.1055 111.325 30.9883 111.443 30.8516C111.564 30.7109 111.663 30.5547 111.741 30.3828V27.3652C111.663 27.1895 111.568 27.0273 111.454 26.8789C111.341 26.7305 111.21 26.6035 111.062 26.498C110.913 26.3887 110.749 26.3047 110.57 26.2461C110.39 26.1836 110.197 26.1523 109.99 26.1523C109.63 26.1523 109.327 26.2305 109.081 26.3867C108.835 26.5391 108.634 26.7402 108.478 26.9902C108.325 27.2363 108.214 27.5156 108.144 27.8281C108.077 28.1406 108.044 28.4551 108.044 28.7715V28.8945ZM115.691 25.6602H118.633V31.3789H120.789V32H115.691V31.3789H117.93V26.2871H115.691V25.6602ZM117.725 23.9258C117.725 23.7812 117.766 23.6562 117.848 23.5508C117.93 23.4453 118.066 23.3926 118.258 23.3926C118.445 23.3926 118.58 23.4453 118.662 23.5508C118.748 23.6562 118.791 23.7812 118.791 23.9258C118.791 24.0625 118.748 24.1836 118.662 24.2891C118.58 24.3906 118.445 24.4414 118.258 24.4414C118.066 24.4414 117.93 24.3906 117.848 24.2891C117.766 24.1836 117.725 24.0625 117.725 23.9258ZM125.852 24.0371V25.6602H128.202V26.2344H125.852V30.2246C125.856 30.4707 125.893 30.6758 125.964 30.8398C126.038 31 126.135 31.1309 126.257 31.2324C126.382 31.3301 126.526 31.4004 126.69 31.4434C126.858 31.4863 127.04 31.5078 127.235 31.5078C127.43 31.5078 127.63 31.4941 127.833 31.4668C128.04 31.4395 128.216 31.4121 128.36 31.3848L128.466 31.918C128.298 31.9844 128.092 32.0332 127.85 32.0645C127.608 32.0996 127.362 32.1172 127.112 32.1172C126.831 32.1172 126.571 32.082 126.333 32.0117C126.094 31.9453 125.887 31.8379 125.712 31.6895C125.536 31.5371 125.397 31.3418 125.296 31.1035C125.194 30.8613 125.141 30.5664 125.137 30.2188V26.2344H123.374V25.6602H125.137V24.0371H125.852ZM135.861 32C135.818 31.8711 135.785 31.7285 135.761 31.5723C135.738 31.4121 135.722 31.25 135.714 31.0859C135.593 31.2344 135.453 31.3711 135.292 31.4961C135.132 31.6211 134.956 31.7305 134.765 31.8242C134.578 31.9141 134.374 31.9844 134.156 32.0352C133.937 32.0898 133.708 32.1172 133.47 32.1172C133.173 32.1172 132.896 32.0742 132.638 31.9883C132.384 31.9023 132.162 31.7812 131.97 31.625C131.783 31.4688 131.634 31.2812 131.525 31.0625C131.419 30.8398 131.367 30.5918 131.367 30.3184C131.367 29.9551 131.447 29.6465 131.607 29.3926C131.767 29.1387 131.984 28.9336 132.257 28.7773C132.531 28.6172 132.847 28.5 133.206 28.4258C133.566 28.3516 133.943 28.3145 134.337 28.3145H135.708V27.5938C135.705 27.3555 135.658 27.1465 135.568 26.9668C135.478 26.7832 135.355 26.6309 135.199 26.5098C135.046 26.3848 134.863 26.291 134.648 26.2285C134.437 26.166 134.206 26.1348 133.956 26.1348C133.73 26.1348 133.513 26.1641 133.306 26.2227C133.103 26.2812 132.921 26.3652 132.761 26.4746C132.605 26.584 132.478 26.7188 132.38 26.8789C132.283 27.0352 132.23 27.2129 132.222 27.4121L131.519 27.4062C131.531 27.1367 131.601 26.8887 131.73 26.6621C131.863 26.4355 132.04 26.2402 132.263 26.0762C132.486 25.9082 132.744 25.7773 133.037 25.6836C133.333 25.5898 133.65 25.543 133.986 25.543C134.322 25.543 134.636 25.5859 134.929 25.6719C135.226 25.7578 135.482 25.8867 135.697 26.0586C135.915 26.2305 136.087 26.4453 136.212 26.7031C136.341 26.9609 136.408 27.2617 136.412 27.6055V30.6758C136.412 30.8867 136.429 31.0996 136.464 31.3145C136.503 31.5293 136.55 31.7344 136.605 31.9297L136.611 32H135.861ZM133.546 31.4961C133.792 31.5 134.027 31.4707 134.249 31.4082C134.476 31.3457 134.683 31.2598 134.871 31.1504C135.058 31.0371 135.224 30.9043 135.369 30.752C135.513 30.5957 135.626 30.4258 135.708 30.2422V28.8535H134.431C134.123 28.8535 133.826 28.877 133.54 28.9238C133.255 28.9707 133.003 29.0488 132.785 29.1582C132.566 29.2637 132.39 29.4062 132.257 29.5859C132.128 29.7656 132.064 29.9902 132.064 30.2598C132.064 30.4512 132.103 30.623 132.181 30.7754C132.259 30.9277 132.365 31.0586 132.498 31.168C132.63 31.2734 132.787 31.3555 132.966 31.4141C133.146 31.4688 133.339 31.4961 133.546 31.4961ZM139.653 23H142.606V31.3789H144.75V32H139.653V31.3789H141.903V23.627H139.653V23Z" fill="white"/>
<line x1="84.75" y1="32" x2="84.75" y2="-1.09278e-08" stroke="white" stroke-width="0.5"/>
</svg>
