<svg width="145" height="35" viewBox="0 0 145 35" fill="none" xmlns="http://www.w3.org/2000/svg">
<g clip-path="url(#clip0)">
<path d="M10.8628 9.72444C10.8628 10.2764 10.7488 10.7564 10.5208 11.1644C10.2928 11.5724 9.98087 11.9144 9.58487 12.1904C9.18887 12.4544 8.72687 12.6584 8.19887 12.8024C7.67087 12.9344 7.11287 13.0004 6.52487 13.0004H0.296875V0.220437H7.40687C7.85087 0.220437 8.25287 0.316439 8.61287 0.508439C8.97287 0.700439 9.27887 0.952439 9.53087 1.26444C9.78287 1.56444 9.97487 1.91244 10.1068 2.30844C10.2508 2.69244 10.3228 3.08844 10.3228 3.49644C10.3228 4.10844 10.1668 4.68444 9.85487 5.22444C9.55487 5.76444 9.09887 6.17244 8.48687 6.44844C9.21887 6.66444 9.79487 7.04844 10.2148 7.60044C10.6468 8.15244 10.8628 8.86044 10.8628 9.72444ZM7.85687 9.13044C7.85687 8.73444 7.74287 8.39844 7.51487 8.12244C7.28687 7.84644 6.99887 7.70844 6.65087 7.70844H3.24887V10.4984H6.52487C6.90887 10.4984 7.22687 10.3724 7.47887 10.1204C7.73087 9.86844 7.85687 9.53844 7.85687 9.13044ZM3.24887 2.74044V5.38644H6.14687C6.47087 5.38644 6.75887 5.27844 7.01087 5.06244C7.26287 4.84644 7.38887 4.51044 7.38887 4.05444C7.38887 3.63444 7.27487 3.31044 7.04687 3.08244C6.83087 2.85444 6.56687 2.74044 6.25487 2.74044H3.24887ZM17.1015 13.0004V0.220437H20.0535V10.4084H26.2455V13.0004H17.1015ZM48.303 6.50244C48.303 5.73444 48.447 4.97244 48.735 4.21644C49.023 3.44844 49.443 2.76444 49.995 2.16444C50.547 1.56444 51.219 1.07844 52.011 0.706438C52.803 0.334438 53.703 0.148438 54.711 0.148438C55.911 0.148438 56.949 0.406438 57.825 0.922439C58.713 1.43844 59.373 2.11044 59.805 2.93844L57.537 4.52244C57.393 4.18644 57.207 3.91044 56.979 3.69444C56.763 3.46644 56.523 3.28644 56.259 3.15444C55.995 3.01044 55.725 2.91444 55.449 2.86644C55.173 2.80644 54.903 2.77644 54.639 2.77644C54.075 2.77644 53.583 2.89044 53.163 3.11844C52.743 3.34644 52.395 3.64044 52.119 4.00044C51.843 4.36044 51.639 4.76844 51.507 5.22444C51.375 5.68044 51.309 6.14244 51.309 6.61044C51.309 7.11444 51.387 7.60044 51.543 8.06844C51.699 8.53644 51.921 8.95044 52.209 9.31044C52.509 9.67044 52.863 9.95844 53.271 10.1744C53.691 10.3784 54.159 10.4804 54.675 10.4804C54.939 10.4804 55.209 10.4504 55.485 10.3904C55.773 10.3184 56.043 10.2164 56.295 10.0844C56.559 9.94044 56.799 9.76044 57.015 9.54444C57.231 9.31644 57.405 9.04044 57.537 8.71644L59.949 10.1384C59.757 10.6064 59.469 11.0264 59.085 11.3984C58.713 11.7704 58.281 12.0824 57.789 12.3344C57.297 12.5864 56.775 12.7784 56.223 12.9104C55.671 13.0424 55.131 13.1084 54.603 13.1084C53.679 13.1084 52.827 12.9224 52.047 12.5504C51.279 12.1664 50.613 11.6624 50.049 11.0384C49.497 10.4144 49.065 9.70644 48.753 8.91444C48.453 8.12244 48.303 7.31844 48.303 6.50244ZM65.9336 13.0004V0.220437H68.8856V5.72844L73.5656 0.220437H76.8776L72.0896 5.92644L77.2016 13.0004H73.8356L70.2176 7.85244L68.8856 9.23844V13.0004H65.9336Z" fill="white"/>
<path d="M33.5 1.5H42.5V11.5H33.5V1.5Z" stroke="#00DFA7" stroke-width="3"/>
<path d="M33.5 20.5H42.5V30.5H33.5V20.5Z" stroke="#00DFA7" stroke-width="3"/>
<path d="M14.7891 25.5024C14.7891 24.7344 14.9331 23.9724 15.2211 23.2164C15.5091 22.4484 15.9291 21.7644 16.4811 21.1644C17.0331 20.5644 17.7051 20.0784 18.4971 19.7064C19.2891 19.3344 20.1891 19.1484 21.1971 19.1484C22.3971 19.1484 23.4351 19.4064 24.3111 19.9224C25.1991 20.4384 25.8591 21.1104 26.2911 21.9384L24.0231 23.5224C23.8791 23.1864 23.6931 22.9104 23.4651 22.6944C23.2491 22.4664 23.0091 22.2864 22.7451 22.1544C22.4811 22.0104 22.2111 21.9144 21.9351 21.8664C21.6591 21.8064 21.3891 21.7764 21.1251 21.7764C20.5611 21.7764 20.0691 21.8904 19.6491 22.1184C19.2291 22.3464 18.8811 22.6404 18.6051 23.0004C18.3291 23.3604 18.1251 23.7684 17.9931 24.2244C17.8611 24.6804 17.7951 25.1424 17.7951 25.6104C17.7951 26.1144 17.8731 26.6004 18.0291 27.0684C18.1851 27.5364 18.4071 27.9504 18.6951 28.3104C18.9951 28.6704 19.3491 28.9584 19.7571 29.1744C20.1771 29.3784 20.6451 29.4804 21.1611 29.4804C21.4251 29.4804 21.6951 29.4504 21.9711 29.3904C22.2591 29.3184 22.5291 29.2164 22.7811 29.0844C23.0451 28.9404 23.2851 28.7604 23.5011 28.5444C23.7171 28.3164 23.8911 28.0404 24.0231 27.7164L26.4351 29.1384C26.2431 29.6064 25.9551 30.0264 25.5711 30.3984C25.1991 30.7704 24.7671 31.0824 24.2751 31.3344C23.7831 31.5864 23.2611 31.7784 22.7091 31.9104C22.1571 32.0424 21.6171 32.1084 21.0891 32.1084C20.1651 32.1084 19.3131 31.9224 18.5331 31.5504C17.7651 31.1664 17.0991 30.6624 16.5351 30.0384C15.9831 29.4144 15.5511 28.7064 15.2391 27.9144C14.9391 27.1224 14.7891 26.3184 14.7891 25.5024Z" fill="white"/>
<path d="M52.4735 24.6927V32.0007H49.5215V19.2207H51.8255L57.7835 26.7267V19.2207H60.7355V32.0007H58.3595L52.4735 24.6927ZM67.6797 32.0007V19.2207H76.3557V21.8127H70.6317V24.5667H75.3477V26.9607H70.6317V32.0007H67.6797Z" fill="white"/>
<path d="M91.3555 28.7715C91.3555 28.3496 91.4082 27.9453 91.5137 27.5586C91.6192 27.168 91.7754 26.8242 91.9825 26.5273C92.1934 26.2266 92.4551 25.9883 92.7676 25.8125C93.084 25.6328 93.4551 25.543 93.8809 25.543C94.2832 25.543 94.6426 25.6289 94.959 25.8008C95.2793 25.9727 95.5469 26.2129 95.7618 26.5215V23H96.459V32H95.8028L95.7735 31.1738C95.5508 31.4785 95.2774 31.7129 94.9532 31.877C94.6289 32.0371 94.2676 32.1172 93.8692 32.1172C93.4512 32.1172 93.084 32.0273 92.7676 31.8477C92.4551 31.6641 92.1934 31.4238 91.9825 31.127C91.7754 30.8262 91.6192 30.4824 91.5137 30.0957C91.4082 29.7051 91.3555 29.3047 91.3555 28.8945V28.7715ZM92.0645 28.8945C92.0645 29.2109 92.0977 29.5254 92.1641 29.8379C92.2344 30.1504 92.3457 30.4316 92.4981 30.6816C92.6504 30.9277 92.8497 31.127 93.0957 31.2793C93.3418 31.4316 93.6426 31.5078 93.9981 31.5078C94.1973 31.5078 94.3848 31.4824 94.5606 31.4316C94.7403 31.3809 94.9043 31.3086 95.0528 31.2148C95.2051 31.1172 95.3399 31.002 95.4571 30.8691C95.5782 30.7324 95.6797 30.5801 95.7618 30.4121V27.3418C95.6836 27.166 95.586 27.0059 95.4688 26.8613C95.3555 26.7168 95.2247 26.5918 95.0762 26.4863C94.9278 26.3809 94.7637 26.2988 94.584 26.2402C94.4043 26.1816 94.2129 26.1523 94.0098 26.1523C93.6504 26.1523 93.3477 26.2305 93.1016 26.3867C92.8555 26.5391 92.6543 26.7402 92.4981 26.9902C92.3457 27.2363 92.2344 27.5156 92.1641 27.8281C92.0977 28.1406 92.0645 28.4551 92.0645 28.7715V28.8945ZM99.7175 25.6602H102.659V31.3789H104.815V32H99.7175V31.3789H101.956V26.2871H99.7175V25.6602ZM101.751 23.9258C101.751 23.7812 101.792 23.6562 101.874 23.5508C101.956 23.4453 102.092 23.3926 102.284 23.3926C102.471 23.3926 102.606 23.4453 102.688 23.5508C102.774 23.6562 102.817 23.7812 102.817 23.9258C102.817 24.0625 102.774 24.1836 102.688 24.2891C102.606 24.3906 102.471 24.4414 102.284 24.4414C102.092 24.4414 101.956 24.3906 101.874 24.2891C101.792 24.1836 101.751 24.0625 101.751 23.9258ZM107.341 28.7715C107.341 28.3496 107.392 27.9453 107.493 27.5586C107.595 27.168 107.749 26.8242 107.956 26.5273C108.167 26.2266 108.429 25.9883 108.741 25.8125C109.058 25.6328 109.431 25.543 109.861 25.543C110.267 25.543 110.63 25.6309 110.95 25.8066C111.275 25.9785 111.544 26.2227 111.759 26.5391L111.788 25.6602H112.445V31.8887C112.441 32.2754 112.38 32.6309 112.263 32.9551C112.146 33.2793 111.976 33.5566 111.753 33.7871C111.534 34.0215 111.269 34.2031 110.956 34.332C110.644 34.4609 110.292 34.5254 109.902 34.5254C109.714 34.5254 109.519 34.5039 109.316 34.4609C109.113 34.418 108.913 34.3516 108.718 34.2617C108.523 34.1719 108.335 34.0586 108.156 33.9219C107.98 33.7891 107.825 33.6289 107.693 33.4414L108.085 33.0195C108.589 33.6289 109.179 33.9336 109.855 33.9336C110.156 33.9336 110.423 33.8848 110.657 33.7871C110.892 33.6895 111.087 33.5508 111.243 33.3711C111.404 33.1953 111.525 32.9824 111.607 32.7324C111.693 32.4863 111.738 32.2148 111.741 31.918V31.1973C111.519 31.4941 111.245 31.7227 110.921 31.8828C110.601 32.0391 110.243 32.1172 109.849 32.1172C109.427 32.1172 109.058 32.0273 108.741 31.8477C108.429 31.6641 108.169 31.4238 107.962 31.127C107.755 30.8262 107.599 30.4824 107.493 30.0957C107.392 29.7051 107.341 29.3047 107.341 28.8945V28.7715ZM108.044 28.8945C108.044 29.2109 108.077 29.5254 108.144 29.8379C108.214 30.1504 108.325 30.4316 108.478 30.6816C108.63 30.9277 108.829 31.127 109.075 31.2793C109.322 31.4316 109.622 31.5078 109.978 31.5078C110.177 31.5078 110.366 31.4824 110.546 31.4316C110.726 31.377 110.89 31.3008 111.038 31.2031C111.191 31.1055 111.325 30.9883 111.443 30.8516C111.564 30.7109 111.663 30.5547 111.741 30.3828V27.3652C111.663 27.1895 111.568 27.0273 111.454 26.8789C111.341 26.7305 111.21 26.6035 111.062 26.498C110.913 26.3887 110.749 26.3047 110.57 26.2461C110.39 26.1836 110.197 26.1523 109.99 26.1523C109.63 26.1523 109.327 26.2305 109.081 26.3867C108.835 26.5391 108.634 26.7402 108.478 26.9902C108.325 27.2363 108.214 27.5156 108.144 27.8281C108.077 28.1406 108.044 28.4551 108.044 28.7715V28.8945ZM115.691 25.6602H118.633V31.3789H120.789V32H115.691V31.3789H117.93V26.2871H115.691V25.6602ZM117.725 23.9258C117.725 23.7812 117.766 23.6562 117.848 23.5508C117.93 23.4453 118.066 23.3926 118.258 23.3926C118.445 23.3926 118.58 23.4453 118.662 23.5508C118.748 23.6562 118.791 23.7812 118.791 23.9258C118.791 24.0625 118.748 24.1836 118.662 24.2891C118.58 24.3906 118.445 24.4414 118.258 24.4414C118.066 24.4414 117.93 24.3906 117.848 24.2891C117.766 24.1836 117.725 24.0625 117.725 23.9258ZM125.852 24.0371V25.6602H128.202V26.2344H125.852V30.2246C125.856 30.4707 125.893 30.6758 125.964 30.8398C126.038 31 126.135 31.1309 126.257 31.2324C126.382 31.3301 126.526 31.4004 126.69 31.4434C126.858 31.4863 127.04 31.5078 127.235 31.5078C127.43 31.5078 127.63 31.4941 127.833 31.4668C128.04 31.4395 128.216 31.4121 128.36 31.3848L128.466 31.918C128.298 31.9844 128.092 32.0332 127.85 32.0645C127.608 32.0996 127.362 32.1172 127.112 32.1172C126.831 32.1172 126.571 32.082 126.333 32.0117C126.094 31.9453 125.887 31.8379 125.712 31.6895C125.536 31.5371 125.397 31.3418 125.296 31.1035C125.194 30.8613 125.141 30.5664 125.137 30.2188V26.2344H123.374V25.6602H125.137V24.0371H125.852ZM135.861 32C135.818 31.8711 135.785 31.7285 135.761 31.5723C135.738 31.4121 135.722 31.25 135.714 31.0859C135.593 31.2344 135.453 31.3711 135.292 31.4961C135.132 31.6211 134.956 31.7305 134.765 31.8242C134.578 31.9141 134.374 31.9844 134.156 32.0352C133.937 32.0898 133.708 32.1172 133.47 32.1172C133.173 32.1172 132.896 32.0742 132.638 31.9883C132.384 31.9023 132.162 31.7812 131.97 31.625C131.783 31.4688 131.634 31.2812 131.525 31.0625C131.419 30.8398 131.367 30.5918 131.367 30.3184C131.367 29.9551 131.447 29.6465 131.607 29.3926C131.767 29.1387 131.984 28.9336 132.257 28.7773C132.531 28.6172 132.847 28.5 133.206 28.4258C133.566 28.3516 133.943 28.3145 134.337 28.3145H135.708V27.5938C135.705 27.3555 135.658 27.1465 135.568 26.9668C135.478 26.7832 135.355 26.6309 135.199 26.5098C135.046 26.3848 134.863 26.291 134.648 26.2285C134.437 26.166 134.206 26.1348 133.956 26.1348C133.73 26.1348 133.513 26.1641 133.306 26.2227C133.103 26.2812 132.921 26.3652 132.761 26.4746C132.605 26.584 132.478 26.7188 132.38 26.8789C132.283 27.0352 132.23 27.2129 132.222 27.4121L131.519 27.4062C131.531 27.1367 131.601 26.8887 131.73 26.6621C131.863 26.4355 132.04 26.2402 132.263 26.0762C132.486 25.9082 132.744 25.7773 133.037 25.6836C133.333 25.5898 133.65 25.543 133.986 25.543C134.322 25.543 134.636 25.5859 134.929 25.6719C135.226 25.7578 135.482 25.8867 135.697 26.0586C135.915 26.2305 136.087 26.4453 136.212 26.7031C136.341 26.9609 136.408 27.2617 136.412 27.6055V30.6758C136.412 30.8867 136.429 31.0996 136.464 31.3145C136.503 31.5293 136.55 31.7344 136.605 31.9297L136.611 32H135.861ZM133.546 31.4961C133.792 31.5 134.027 31.4707 134.249 31.4082C134.476 31.3457 134.683 31.2598 134.871 31.1504C135.058 31.0371 135.224 30.9043 135.369 30.752C135.513 30.5957 135.626 30.4258 135.708 30.2422V28.8535H134.431C134.123 28.8535 133.826 28.877 133.54 28.9238C133.255 28.9707 133.003 29.0488 132.785 29.1582C132.566 29.2637 132.39 29.4062 132.257 29.5859C132.128 29.7656 132.064 29.9902 132.064 30.2598C132.064 30.4512 132.103 30.623 132.181 30.7754C132.259 30.9277 132.365 31.0586 132.498 31.168C132.63 31.2734 132.787 31.3555 132.966 31.4141C133.146 31.4688 133.339 31.4961 133.546 31.4961ZM139.653 23H142.606V31.3789H144.75V32H139.653V31.3789H141.903V23.627H139.653V23Z" fill="white"/>
<path d="M84.75 32V0" stroke="white" stroke-width="0.5"/>
</g>
<defs>
<clipPath id="clip0">
<rect width="145" height="35" fill="white"/>
</clipPath>
</defs>
</svg>
