<svg width="320" height="77" viewBox="0 0 320 77" fill="none" xmlns="http://www.w3.org/2000/svg">
<g clip-path="url(#clip0)">
<path d="M23.9742 21.3928C23.9742 22.6072 23.7226 23.6632 23.2195 24.5608C22.7163 25.4584 22.0278 26.2108 21.1539 26.818C20.28 27.3988 19.2604 27.8476 18.0951 28.1644C16.9299 28.4548 15.6985 28.6 14.4008 28.6H0.65625V0.484023H16.3473C17.3271 0.484023 18.2143 0.695225 19.0088 1.11762C19.8033 1.54002 20.4786 2.09442 21.0347 2.78083C21.5909 3.44083 22.0146 4.20643 22.3058 5.07763C22.6236 5.92243 22.7825 6.79363 22.7825 7.69123C22.7825 9.03763 22.4382 10.3048 21.7498 11.4928C21.0877 12.6808 20.0813 13.5784 18.7307 14.1856C20.3462 14.6608 21.6173 15.5056 22.5442 16.72C23.4975 17.9344 23.9742 19.492 23.9742 21.3928ZM17.3404 20.086C17.3404 19.2148 17.0888 18.4756 16.5856 17.8684C16.0825 17.2612 15.4469 16.9576 14.6789 16.9576H7.171V23.0956H14.4008C15.2482 23.0956 15.95 22.8184 16.5062 22.264C17.0623 21.7096 17.3404 20.9836 17.3404 20.086ZM7.171 6.02803V11.8492H13.5666C14.2816 11.8492 14.9172 11.6116 15.4733 11.1364C16.0295 10.6612 16.3076 9.92203 16.3076 8.91883C16.3076 7.99483 16.056 7.28203 15.5528 6.78043C15.0761 6.27883 14.4935 6.02803 13.8049 6.02803H7.171ZM37.7424 28.6V0.484023H44.2572V22.8976H57.9223V28.6H37.7424ZM106.601 14.3044C106.601 12.6148 106.919 10.9384 107.554 9.27523C108.19 7.58563 109.117 6.08083 110.335 4.76083C111.553 3.44082 113.036 2.37163 114.784 1.55322C116.532 0.734823 118.518 0.325623 120.743 0.325623C123.391 0.325623 125.682 0.893223 127.615 2.02842C129.575 3.16363 131.031 4.64202 131.985 6.46363L126.979 9.94843C126.662 9.20923 126.251 8.60203 125.748 8.12683C125.271 7.62523 124.742 7.22923 124.159 6.93883C123.576 6.62203 122.98 6.41083 122.371 6.30523C121.762 6.17323 121.166 6.10723 120.584 6.10723C119.339 6.10723 118.253 6.35803 117.326 6.85963C116.399 7.36123 115.632 8.00803 115.022 8.80003C114.413 9.59203 113.963 10.4896 113.672 11.4928C113.38 12.496 113.235 13.5124 113.235 14.542C113.235 15.6508 113.407 16.72 113.751 17.7496C114.095 18.7792 114.585 19.69 115.221 20.482C115.883 21.274 116.664 21.9076 117.565 22.3828C118.492 22.8316 119.524 23.056 120.663 23.056C121.246 23.056 121.842 22.99 122.451 22.858C123.086 22.6996 123.682 22.4752 124.238 22.1848C124.821 21.868 125.351 21.472 125.827 20.9968C126.304 20.4952 126.688 19.888 126.979 19.1752L132.302 22.3036C131.879 23.3332 131.243 24.2572 130.396 25.0756C129.575 25.894 128.621 26.5804 127.535 27.1348C126.45 27.6892 125.298 28.1116 124.079 28.402C122.861 28.6924 121.67 28.8376 120.504 28.8376C118.465 28.8376 116.585 28.4284 114.864 27.61C113.169 26.7652 111.699 25.6564 110.454 24.2836C109.236 22.9108 108.283 21.3532 107.594 19.6108C106.932 17.8684 106.601 16.0996 106.601 14.3044ZM145.51 28.6V0.484023H152.025V12.6016L162.353 0.484023H169.662L159.095 13.0372L170.377 28.6H162.949L154.964 17.2744L152.025 20.3236V28.6H145.51Z" fill="#4B4B4B"/>
<path d="M73.9309 3.29999H93.793V25.3H73.9309V3.29999Z" stroke="#9D6DBE" stroke-width="8"/>
<path d="M73.9309 45.1H93.793V67.1H73.9309V45.1Z" stroke="#9D6DBE" stroke-width="8"/>
<path d="M32.6394 56.1044C32.6394 54.4148 32.9572 52.7384 33.5928 51.0752C34.2284 49.3856 35.1553 47.8808 36.3735 46.5608C37.5917 45.2408 39.0747 44.1716 40.8226 43.3532C42.5704 42.5348 44.5566 42.1256 46.7812 42.1256C49.4295 42.1256 51.7202 42.6932 53.6535 43.8284C55.6132 44.9636 57.0697 46.442 58.0231 48.2636L53.0179 51.7484C52.7001 51.0092 52.2896 50.402 51.7864 49.9268C51.3097 49.4252 50.7801 49.0292 50.1975 48.7388C49.6149 48.422 49.019 48.2108 48.4099 48.1052C47.8008 47.9732 47.2049 47.9072 46.6223 47.9072C45.3776 47.9072 44.2918 48.158 43.3649 48.6596C42.438 49.1612 41.67 49.808 41.0609 50.6C40.4518 51.392 40.0016 52.2896 39.7103 53.2928C39.419 54.296 39.2733 55.3124 39.2733 56.342C39.2733 57.4508 39.4455 58.52 39.7897 59.5496C40.134 60.5792 40.624 61.49 41.2595 62.282C41.9216 63.074 42.7029 63.7076 43.6033 64.1828C44.5302 64.6316 45.563 64.856 46.7017 64.856C47.2844 64.856 47.8802 64.79 48.4893 64.658C49.1249 64.4996 49.7208 64.2752 50.2769 63.9848C50.8595 63.668 51.3892 63.272 51.8659 62.7968C52.3426 62.2952 52.7266 61.688 53.0179 60.9752L58.3409 64.1036C57.9172 65.1332 57.2816 66.0572 56.4342 66.8756C55.6132 67.694 54.6598 68.3804 53.574 68.9348C52.4882 69.4892 51.3362 69.9116 50.118 70.202C48.8998 70.4924 47.7081 70.6376 46.5429 70.6376C44.5037 70.6376 42.6234 70.2284 40.902 69.41C39.2071 68.5652 37.7373 67.4564 36.4926 66.0836C35.2744 64.7108 34.3211 63.1532 33.6325 61.4108C32.9704 59.6684 32.6394 57.8996 32.6394 56.1044Z" fill="#4B4B4B"/>
<path d="M115.802 54.3224V70.4H109.288V42.284H114.372L127.521 58.7972V42.284H134.036V70.4H128.792L115.802 54.3224ZM149.361 70.4V42.284H168.508V47.9864H155.876V54.0452H166.283V59.312H155.876V70.4H149.361Z" fill="#4B4B4B"/>
<path d="M201.612 63.2973C201.612 62.3691 201.728 61.4797 201.961 60.6289C202.194 59.7696 202.538 59.0132 202.995 58.3601C203.461 57.6985 204.038 57.1743 204.728 56.7875C205.426 56.3922 206.245 56.1946 207.185 56.1946C208.073 56.1946 208.866 56.3836 209.564 56.7618C210.271 57.1399 210.862 57.6684 211.336 58.3473V50.6H212.874V70.4H211.426L211.362 68.5824C210.87 69.2527 210.267 69.7684 209.551 70.1294C208.836 70.4816 208.038 70.6578 207.159 70.6578C206.237 70.6578 205.426 70.4601 204.728 70.0649C204.038 69.661 203.461 69.1324 202.995 68.4794C202.538 67.8176 202.194 67.0613 201.961 66.2105C201.728 65.3512 201.612 64.4703 201.612 63.5679V63.2973ZM203.176 63.5679C203.176 64.264 203.25 64.9559 203.396 65.6434C203.551 66.3309 203.797 66.9495 204.133 67.4995C204.469 68.0409 204.909 68.4794 205.452 68.8145C205.995 69.1495 206.659 69.3172 207.444 69.3172C207.883 69.3172 208.297 69.2613 208.685 69.1495C209.081 69.038 209.443 68.8789 209.771 68.6726C210.107 68.4578 210.405 68.2044 210.663 67.912C210.931 67.6113 211.155 67.2762 211.336 66.9066V60.152C211.163 59.7652 210.948 59.413 210.689 59.0949C210.439 58.777 210.15 58.502 209.823 58.2699C209.495 58.038 209.133 57.8574 208.737 57.7284C208.34 57.5995 207.918 57.5351 207.469 57.5351C206.676 57.5351 206.008 57.7071 205.465 58.0507C204.922 58.386 204.478 58.8284 204.133 59.3784C203.797 59.9199 203.551 60.5343 203.396 61.2218C203.25 61.9093 203.176 62.6012 203.176 63.2973V63.5679ZM220.066 56.4524H226.558V69.0336H231.316V70.4H220.066V69.0336H225.006V57.8316H220.066V56.4524ZM224.554 52.6368C224.554 52.3186 224.644 52.0436 224.825 51.8118C225.006 51.5797 225.306 51.4637 225.73 51.4637C226.143 51.4637 226.441 51.5797 226.622 51.8118C226.811 52.0436 226.906 52.3186 226.906 52.6368C226.906 52.9375 226.811 53.2039 226.622 53.436C226.441 53.6593 226.143 53.7711 225.73 53.7711C225.306 53.7711 225.006 53.6593 224.825 53.436C224.644 53.2039 224.554 52.9375 224.554 52.6368ZM236.89 63.2973C236.89 62.3691 237.003 61.4797 237.226 60.6289C237.451 59.7696 237.791 59.0132 238.248 58.3601C238.713 57.6985 239.291 57.1743 239.98 56.7875C240.68 56.3922 241.503 56.1946 242.452 56.1946C243.348 56.1946 244.149 56.388 244.855 56.7745C245.572 57.1527 246.166 57.6899 246.64 58.386L246.704 56.4524H248.154V70.1551C248.146 71.0059 248.011 71.788 247.753 72.5012C247.494 73.2145 247.119 73.8245 246.627 74.3316C246.144 74.8473 245.559 75.2468 244.868 75.5304C244.18 75.814 243.403 75.9559 242.542 75.9559C242.127 75.9559 241.697 75.9086 241.249 75.814C240.801 75.7196 240.36 75.5735 239.929 75.3757C239.499 75.1782 239.084 74.9289 238.689 74.6282C238.301 74.336 237.958 73.9836 237.667 73.5711L238.532 72.6429C239.645 73.9836 240.947 74.6539 242.439 74.6539C243.103 74.6539 243.692 74.5466 244.208 74.3316C244.727 74.1169 245.157 73.8118 245.502 73.4164C245.857 73.0297 246.124 72.5613 246.305 72.0113C246.495 71.4699 246.594 70.8726 246.601 70.2196V68.6341C246.111 69.287 245.506 69.7899 244.791 70.1422C244.085 70.486 243.295 70.6578 242.425 70.6578C241.494 70.6578 240.68 70.4601 239.98 70.0649C239.291 69.661 238.718 69.1324 238.261 68.4794C237.804 67.8176 237.46 67.0613 237.226 66.2105C237.003 65.3512 236.89 64.4703 236.89 63.5679V63.2973ZM238.442 63.5679C238.442 64.264 238.515 64.9559 238.662 65.6434C238.817 66.3309 239.062 66.9495 239.4 67.4995C239.735 68.0409 240.174 68.4794 240.717 68.8145C241.262 69.1495 241.924 69.3172 242.71 69.3172C243.149 69.3172 243.566 69.2613 243.963 69.1495C244.361 69.0294 244.723 68.8618 245.049 68.6468C245.387 68.4321 245.683 68.1743 245.943 67.8735C246.21 67.564 246.429 67.2203 246.601 66.8422V60.2034C246.429 59.8169 246.219 59.4601 245.967 59.1336C245.718 58.8071 245.429 58.5277 245.102 58.2956C244.773 58.0551 244.411 57.8703 244.016 57.7414C243.619 57.6039 243.193 57.5351 242.736 57.5351C241.942 57.5351 241.273 57.7071 240.73 58.0507C240.187 58.386 239.744 58.8284 239.4 59.3784C239.062 59.9199 238.817 60.5343 238.662 61.2218C238.515 61.9093 238.442 62.6012 238.442 63.2973V63.5679ZM255.318 56.4524H261.811V69.0336H266.569V70.4H255.318V69.0336H260.259V57.8316H255.318V56.4524ZM259.807 52.6368C259.807 52.3186 259.897 52.0436 260.078 51.8118C260.259 51.5797 260.559 51.4637 260.983 51.4637C261.396 51.4637 261.694 51.5797 261.875 51.8118C262.064 52.0436 262.159 52.3186 262.159 52.6368C262.159 52.9375 262.064 53.2039 261.875 53.436C261.694 53.6593 261.396 53.7711 260.983 53.7711C260.559 53.7711 260.259 53.6593 260.078 53.436C259.897 53.2039 259.807 52.9375 259.807 52.6368ZM277.742 52.8816V56.4524H282.928V57.7157H277.742V66.4941C277.751 67.0355 277.833 67.4868 277.989 67.8476C278.153 68.2 278.367 68.488 278.636 68.7113C278.912 68.9262 279.23 69.0809 279.592 69.1755C279.962 69.2699 280.364 69.3172 280.794 69.3172C281.225 69.3172 281.666 69.287 282.114 69.227C282.571 69.1669 282.959 69.1066 283.277 69.0466L283.511 70.2196C283.14 70.3657 282.686 70.473 282.152 70.5419C281.618 70.6191 281.075 70.6578 280.523 70.6578C279.903 70.6578 279.329 70.5804 278.804 70.4257C278.276 70.2797 277.819 70.0434 277.433 69.7169C277.045 69.3816 276.738 68.952 276.515 68.4277C276.29 67.8949 276.173 67.2461 276.164 66.4814V57.7157H272.274V56.4524H276.164V52.8816H277.742ZM299.831 70.4C299.736 70.1164 299.663 69.8027 299.61 69.4591C299.56 69.1066 299.524 68.75 299.507 68.389C299.24 68.7157 298.931 69.0164 298.575 69.2914C298.222 69.5664 297.834 69.8071 297.412 70.0132C297 70.211 296.549 70.3657 296.068 70.4774C295.585 70.5976 295.08 70.6578 294.554 70.6578C293.899 70.6578 293.288 70.5632 292.718 70.3743C292.158 70.1851 291.668 69.9186 291.244 69.575C290.831 69.2314 290.502 68.8186 290.262 68.3375C290.028 67.8476 289.913 67.302 289.913 66.7005C289.913 65.9012 290.09 65.2223 290.443 64.6637C290.796 64.1051 291.275 63.6539 291.877 63.3101C292.482 62.9578 293.179 62.7 293.972 62.5368C294.766 62.3735 295.598 62.2919 296.468 62.2919H299.493V60.7064C299.487 60.1821 299.383 59.7223 299.184 59.327C298.986 58.923 298.714 58.588 298.37 58.3216C298.032 58.0466 297.629 57.8402 297.154 57.7027C296.688 57.5652 296.179 57.4966 295.627 57.4966C295.128 57.4966 294.649 57.561 294.192 57.6899C293.744 57.8186 293.343 58.0034 292.99 58.2441C292.645 58.4848 292.365 58.7814 292.149 59.1336C291.935 59.4774 291.818 59.8684 291.8 60.3066L290.249 60.2936C290.275 59.7007 290.43 59.1551 290.714 58.6566C291.008 58.1581 291.398 57.7284 291.891 57.3676C292.383 56.998 292.952 56.7101 293.599 56.5039C294.252 56.2976 294.952 56.1946 295.693 56.1946C296.435 56.1946 297.128 56.289 297.774 56.4782C298.43 56.6672 298.995 56.9507 299.469 57.3289C299.95 57.7071 300.33 58.1797 300.606 58.7468C300.89 59.314 301.038 59.9757 301.047 60.7321V67.4868C301.047 67.9507 301.085 68.4191 301.162 68.8919C301.248 69.3645 301.352 69.8157 301.473 70.2453L301.486 70.4H299.831ZM294.722 69.2914C295.265 69.3 295.784 69.2355 296.274 69.098C296.774 68.9605 297.231 68.7716 297.646 68.5309C298.059 68.2816 298.425 67.9895 298.745 67.6544C299.063 67.3105 299.312 66.9368 299.493 66.5328V63.4777H296.675C295.995 63.4777 295.34 63.5294 294.709 63.6324C294.08 63.7355 293.524 63.9074 293.043 64.148C292.559 64.3801 292.171 64.6936 291.877 65.089C291.593 65.4843 291.451 65.9784 291.451 66.5716C291.451 66.9926 291.538 67.3706 291.71 67.7059C291.882 68.0409 292.116 68.3289 292.409 68.5696C292.701 68.8015 293.047 68.9821 293.442 69.111C293.839 69.2314 294.265 69.2914 294.722 69.2914ZM308.2 50.6H314.717V69.0336H319.448V70.4H308.2V69.0336H313.165V51.9794H308.2V50.6Z" fill="#4B4B4B"/>
<path d="M187.034 70.4V0" stroke="#4B4B4B" stroke-width="0.5"/>
</g>
<defs>
<clipPath id="clip0">
<rect width="320" height="77" fill="white"/>
</clipPath>
</defs>
</svg>
